<svg width="44" height="64" viewBox="0 0 44 64" fill="none" xmlns="http://www.w3.org/2000/svg">
<g clip-path="url(#clip0_6_30)">
<path d="M21.3813 0.0253553V0.0591106C18.9649 5.27552 15.3696 9.82924 11.018 13.9578L16.0498 13.4261L9.20043 22.2068L12.5101 21.1391L8.02465 28.5484L10.2297 29.8774L1.52543 42.3206L6.34048 42.346L-0.554405 53.6329L7.92474 52.5357L9.52553 56.8691L18.3883 53.4555L16.875 64.0378H23.9369L23.0656 54.827L28.1598 57.0422L29.5188 53.696L35.4261 56.5274L42.9506 53.7257L38.0063 45.0716L36.3472 44.7635L37.2517 47.0845L38.2981 49.7721L35.6384 48.7217L28.8475 46.0337V50.8608L26.9591 49.7004L17.7045 44.0295L14.8238 46.8987L12.4186 49.2954L12.706 45.8901L12.9895 42.5612L15.4158 42.7718L16.6455 41.5442L17.3378 40.8564L18.1673 41.3627L26.3547 46.3796V42.3416L28.0555 43.0127L33.8875 45.3205L33.2082 43.5779L32.3869 41.464L34.5924 41.8731L40.6578 42.9999L36.0515 37.7421L32.8999 39.6369L32.0078 40.1727L31.3241 39.3795L29.4191 37.1602L29.4482 37.3245L26.9929 37.7593L26.1965 33.1263L25.4294 28.6621L28.3642 32.0842L32.5247 36.9281L38.3818 33.4135C35.0909 30.7748 33.1116 28.8403 31.7575 26.8226L31.8659 28.5314L32.1287 32.7171L29.6275 29.3753L25.0292 23.2403L22.0611 29.5611L20.2143 33.4936L19.7016 29.1686L19.2347 25.2742L21.4401 25.0084L23.6577 20.2868L24.5374 18.4133L25.7753 20.0633L29.1103 24.5103L29.0103 22.9536L28.8894 21.0255L30.6863 21.6919L33.7247 22.8185L30.2397 18.0717L22.7902 14.173L21.5979 16.9029L20.3098 19.8648L19.28 16.8015L18.2837 13.8479L20.5475 13.0674L21.0435 11.9281L21.5771 10.6961L22.7569 11.3162L29.3435 14.7633L31.5402 14.0123C25.748 9.37975 22.9186 4.71126 21.381 0.0250854L21.3813 0.0253553Z" fill="#DCD4AE"/>
</g>
<defs>
<clipPath id="clip0_6_30">
<rect width="43.3548" height="64" fill="white"/>
</clipPath>
</defs>
</svg>
