<svg width="370" height="228" viewBox="0 0 370 228" fill="none" xmlns="http://www.w3.org/2000/svg">
<path d="M5.502 163.098C4.59667 163.098 3.77067 162.888 3.024 162.468C2.27733 162.039 1.68467 161.446 1.246 160.69C0.816667 159.925 0.602 159.066 0.602 158.114C0.602 157.162 0.816667 156.308 1.246 155.552C1.68467 154.787 2.27733 154.194 3.024 153.774C3.77067 153.345 4.59667 153.13 5.502 153.13C6.41667 153.13 7.24733 153.345 7.994 153.774C8.74067 154.194 9.32867 154.782 9.758 155.538C10.1873 156.294 10.402 157.153 10.402 158.114C10.402 159.075 10.1873 159.934 9.758 160.69C9.32867 161.446 8.74067 162.039 7.994 162.468C7.24733 162.888 6.41667 163.098 5.502 163.098ZM5.502 161.992C6.18333 161.992 6.79467 161.833 7.336 161.516C7.88667 161.199 8.316 160.746 8.624 160.158C8.94133 159.57 9.1 158.889 9.1 158.114C9.1 157.33 8.94133 156.649 8.624 156.07C8.316 155.482 7.89133 155.029 7.35 154.712C6.80867 154.395 6.19267 154.236 5.502 154.236C4.81133 154.236 4.19533 154.395 3.654 154.712C3.11267 155.029 2.68333 155.482 2.366 156.07C2.058 156.649 1.904 157.33 1.904 158.114C1.904 158.889 2.058 159.57 2.366 160.158C2.68333 160.746 3.11267 161.199 3.654 161.516C4.20467 161.833 4.82067 161.992 5.502 161.992ZM18.8879 155.328V163H17.6139V161.866C17.3712 162.258 17.0305 162.566 16.5919 162.79C16.1625 163.005 15.6865 163.112 15.1639 163.112C14.5665 163.112 14.0299 162.991 13.5539 162.748C13.0779 162.496 12.6999 162.123 12.4199 161.628C12.1492 161.133 12.0139 160.531 12.0139 159.822V155.328H13.2739V159.654C13.2739 160.41 13.4652 160.993 13.8479 161.404C14.2305 161.805 14.7532 162.006 15.4159 162.006C16.0972 162.006 16.6339 161.796 17.0259 161.376C17.4179 160.956 17.6139 160.345 17.6139 159.542V155.328H18.8879ZM22.3129 156.574C22.5369 156.135 22.8543 155.795 23.2649 155.552C23.6849 155.309 24.1936 155.188 24.7909 155.188V156.504H24.4549C23.0269 156.504 22.3129 157.279 22.3129 158.828V163H21.0389V155.328H22.3129V156.574ZM29.518 159.136C29.518 158.352 29.6767 157.666 29.994 157.078C30.3113 156.481 30.7453 156.019 31.296 155.692C31.856 155.365 32.4813 155.202 33.172 155.202C33.7693 155.202 34.3247 155.342 34.838 155.622C35.3513 155.893 35.7433 156.252 36.014 156.7V152.64H37.302V163H36.014V161.558C35.762 162.015 35.3887 162.393 34.894 162.692C34.3993 162.981 33.8207 163.126 33.158 163.126C32.4767 163.126 31.856 162.958 31.296 162.622C30.7453 162.286 30.3113 161.815 29.994 161.208C29.6767 160.601 29.518 159.911 29.518 159.136ZM36.014 159.15C36.014 158.571 35.8973 158.067 35.664 157.638C35.4307 157.209 35.1133 156.882 34.712 156.658C34.32 156.425 33.886 156.308 33.41 156.308C32.934 156.308 32.5 156.42 32.108 156.644C31.716 156.868 31.4033 157.195 31.17 157.624C30.9367 158.053 30.82 158.557 30.82 159.136C30.82 159.724 30.9367 160.237 31.17 160.676C31.4033 161.105 31.716 161.437 32.108 161.67C32.5 161.894 32.934 162.006 33.41 162.006C33.886 162.006 34.32 161.894 34.712 161.67C35.1133 161.437 35.4307 161.105 35.664 160.676C35.8973 160.237 36.014 159.729 36.014 159.15ZM46.455 158.87C46.455 159.113 46.441 159.369 46.413 159.64H40.281C40.3276 160.396 40.5843 160.989 41.051 161.418C41.527 161.838 42.101 162.048 42.773 162.048C43.3236 162.048 43.781 161.922 44.145 161.67C44.5183 161.409 44.7796 161.063 44.929 160.634H46.301C46.0956 161.371 45.685 161.973 45.069 162.44C44.453 162.897 43.6876 163.126 42.773 163.126C42.045 163.126 41.3916 162.963 40.813 162.636C40.2436 162.309 39.7956 161.847 39.469 161.25C39.1423 160.643 38.979 159.943 38.979 159.15C38.979 158.357 39.1376 157.661 39.455 157.064C39.7723 156.467 40.2156 156.009 40.785 155.692C41.3636 155.365 42.0263 155.202 42.773 155.202C43.501 155.202 44.145 155.361 44.705 155.678C45.265 155.995 45.6943 156.434 45.993 156.994C46.301 157.545 46.455 158.17 46.455 158.87ZM45.139 158.604C45.139 158.119 45.0316 157.703 44.817 157.358C44.6023 157.003 44.3083 156.737 43.935 156.56C43.571 156.373 43.165 156.28 42.717 156.28C42.073 156.28 41.5223 156.485 41.065 156.896C40.617 157.307 40.3603 157.876 40.295 158.604H45.139ZM50.8526 163.126C50.2646 163.126 49.7373 163.028 49.2706 162.832C48.8039 162.627 48.4353 162.347 48.1646 161.992C47.8939 161.628 47.7446 161.213 47.7166 160.746H49.0326C49.0699 161.129 49.2473 161.441 49.5646 161.684C49.8913 161.927 50.3159 162.048 50.8386 162.048C51.3239 162.048 51.7066 161.941 51.9866 161.726C52.2666 161.511 52.4066 161.241 52.4066 160.914C52.4066 160.578 52.2573 160.331 51.9586 160.172C51.6599 160.004 51.1979 159.841 50.5726 159.682C50.0033 159.533 49.5366 159.383 49.1726 159.234C48.8179 159.075 48.5099 158.847 48.2486 158.548C47.9966 158.24 47.8706 157.839 47.8706 157.344C47.8706 156.952 47.9873 156.593 48.2206 156.266C48.4539 155.939 48.7853 155.683 49.2146 155.496C49.6439 155.3 50.1339 155.202 50.6846 155.202C51.5339 155.202 52.2199 155.417 52.7426 155.846C53.2653 156.275 53.5453 156.863 53.5826 157.61H52.3086C52.2806 157.209 52.1173 156.887 51.8186 156.644C51.5293 156.401 51.1373 156.28 50.6426 156.28C50.1853 156.28 49.8213 156.378 49.5506 156.574C49.2799 156.77 49.1446 157.027 49.1446 157.344C49.1446 157.596 49.2239 157.806 49.3826 157.974C49.5506 158.133 49.7559 158.263 49.9986 158.366C50.2506 158.459 50.5959 158.567 51.0346 158.688C51.5853 158.837 52.0333 158.987 52.3786 159.136C52.7239 159.276 53.0179 159.491 53.2606 159.78C53.5126 160.069 53.6433 160.447 53.6526 160.914C53.6526 161.334 53.5359 161.712 53.3026 162.048C53.0693 162.384 52.7379 162.65 52.3086 162.846C51.8886 163.033 51.4033 163.126 50.8526 163.126ZM56.109 154.082C55.8664 154.082 55.661 153.998 55.493 153.83C55.325 153.662 55.241 153.457 55.241 153.214C55.241 152.971 55.325 152.766 55.493 152.598C55.661 152.43 55.8664 152.346 56.109 152.346C56.3424 152.346 56.5384 152.43 56.697 152.598C56.865 152.766 56.949 152.971 56.949 153.214C56.949 153.457 56.865 153.662 56.697 153.83C56.5384 153.998 56.3424 154.082 56.109 154.082ZM56.725 155.328V163H55.451V155.328H56.725ZM62.0604 155.202C62.723 155.202 63.3017 155.347 63.7964 155.636C64.3004 155.925 64.6737 156.289 64.9164 156.728V155.328H66.2044V163.168C66.2044 163.868 66.055 164.489 65.7564 165.03C65.4577 165.581 65.0284 166.01 64.4684 166.318C63.9177 166.626 63.2737 166.78 62.5364 166.78C61.5284 166.78 60.6884 166.542 60.0164 166.066C59.3444 165.59 58.9477 164.941 58.8264 164.12H60.0864C60.2264 164.587 60.5157 164.96 60.9544 165.24C61.393 165.529 61.9204 165.674 62.5364 165.674C63.2364 165.674 63.8057 165.455 64.2444 165.016C64.6924 164.577 64.9164 163.961 64.9164 163.168V161.558C64.6644 162.006 64.291 162.379 63.7964 162.678C63.3017 162.977 62.723 163.126 62.0604 163.126C61.379 163.126 60.7584 162.958 60.1984 162.622C59.6477 162.286 59.2137 161.815 58.8964 161.208C58.579 160.601 58.4204 159.911 58.4204 159.136C58.4204 158.352 58.579 157.666 58.8964 157.078C59.2137 156.481 59.6477 156.019 60.1984 155.692C60.7584 155.365 61.379 155.202 62.0604 155.202ZM64.9164 159.15C64.9164 158.571 64.7997 158.067 64.5664 157.638C64.333 157.209 64.0157 156.882 63.6144 156.658C63.2224 156.425 62.7884 156.308 62.3124 156.308C61.8364 156.308 61.4024 156.42 61.0104 156.644C60.6184 156.868 60.3057 157.195 60.0724 157.624C59.839 158.053 59.7224 158.557 59.7224 159.136C59.7224 159.724 59.839 160.237 60.0724 160.676C60.3057 161.105 60.6184 161.437 61.0104 161.67C61.4024 161.894 61.8364 162.006 62.3124 162.006C62.7884 162.006 63.2224 161.894 63.6144 161.67C64.0157 161.437 64.333 161.105 64.5664 160.676C64.7997 160.237 64.9164 159.729 64.9164 159.15ZM72.0953 155.188C73.0286 155.188 73.7846 155.473 74.3633 156.042C74.942 156.602 75.2313 157.414 75.2313 158.478V163H73.9713V158.66C73.9713 157.895 73.78 157.311 73.3973 156.91C73.0146 156.499 72.492 156.294 71.8293 156.294C71.1573 156.294 70.6206 156.504 70.2193 156.924C69.8273 157.344 69.6313 157.955 69.6313 158.758V163H68.3573V155.328H69.6313V156.42C69.8833 156.028 70.224 155.725 70.6533 155.51C71.092 155.295 71.5726 155.188 72.0953 155.188ZM81.7028 154.082C81.4601 154.082 81.2548 153.998 81.0868 153.83C80.9188 153.662 80.8348 153.457 80.8348 153.214C80.8348 152.971 80.9188 152.766 81.0868 152.598C81.2548 152.43 81.4601 152.346 81.7028 152.346C81.9361 152.346 82.1321 152.43 82.2908 152.598C82.4588 152.766 82.5428 152.971 82.5428 153.214C82.5428 153.457 82.4588 153.662 82.2908 153.83C82.1321 153.998 81.9361 154.082 81.7028 154.082ZM82.3188 155.328V163H81.0448V155.328H82.3188ZM87.2061 163.126C86.6181 163.126 86.0908 163.028 85.6241 162.832C85.1574 162.627 84.7888 162.347 84.5181 161.992C84.2474 161.628 84.0981 161.213 84.0701 160.746H85.3861C85.4234 161.129 85.6008 161.441 85.9181 161.684C86.2448 161.927 86.6694 162.048 87.1921 162.048C87.6774 162.048 88.0601 161.941 88.3401 161.726C88.6201 161.511 88.7601 161.241 88.7601 160.914C88.7601 160.578 88.6108 160.331 88.3121 160.172C88.0134 160.004 87.5514 159.841 86.9261 159.682C86.3568 159.533 85.8901 159.383 85.5261 159.234C85.1714 159.075 84.8634 158.847 84.6021 158.548C84.3501 158.24 84.2241 157.839 84.2241 157.344C84.2241 156.952 84.3408 156.593 84.5741 156.266C84.8074 155.939 85.1388 155.683 85.5681 155.496C85.9974 155.3 86.4874 155.202 87.0381 155.202C87.8874 155.202 88.5734 155.417 89.0961 155.846C89.6188 156.275 89.8988 156.863 89.9361 157.61H88.6621C88.6341 157.209 88.4708 156.887 88.1721 156.644C87.8828 156.401 87.4908 156.28 86.9961 156.28C86.5388 156.28 86.1748 156.378 85.9041 156.574C85.6334 156.77 85.4981 157.027 85.4981 157.344C85.4981 157.596 85.5774 157.806 85.7361 157.974C85.9041 158.133 86.1094 158.263 86.3521 158.366C86.6041 158.459 86.9494 158.567 87.3881 158.688C87.9388 158.837 88.3868 158.987 88.7321 159.136C89.0774 159.276 89.3714 159.491 89.6141 159.78C89.8661 160.069 89.9968 160.447 90.0061 160.914C90.0061 161.334 89.8894 161.712 89.6561 162.048C89.4228 162.384 89.0914 162.65 88.6621 162.846C88.2421 163.033 87.7568 163.126 87.2061 163.126ZM97.091 156.378V160.9C97.091 161.273 97.1703 161.539 97.329 161.698C97.4877 161.847 97.763 161.922 98.155 161.922H99.093V163H97.945C97.2357 163 96.7037 162.837 96.349 162.51C95.9943 162.183 95.817 161.647 95.817 160.9V156.378H94.823V155.328H95.817V153.396H97.091V155.328H99.093V156.378H97.091ZM101.911 156.574C102.135 156.135 102.452 155.795 102.863 155.552C103.283 155.309 103.791 155.188 104.389 155.188V156.504H104.053C102.625 156.504 101.911 157.279 101.911 158.828V163H100.637V155.328H101.911V156.574ZM105.383 159.136C105.383 158.352 105.542 157.666 105.859 157.078C106.177 156.481 106.611 156.019 107.161 155.692C107.721 155.365 108.342 155.202 109.023 155.202C109.695 155.202 110.279 155.347 110.773 155.636C111.268 155.925 111.637 156.289 111.879 156.728V155.328H113.167V163H111.879V161.572C111.627 162.02 111.249 162.393 110.745 162.692C110.251 162.981 109.672 163.126 109.009 163.126C108.328 163.126 107.712 162.958 107.161 162.622C106.611 162.286 106.177 161.815 105.859 161.208C105.542 160.601 105.383 159.911 105.383 159.136ZM111.879 159.15C111.879 158.571 111.763 158.067 111.529 157.638C111.296 157.209 110.979 156.882 110.577 156.658C110.185 156.425 109.751 156.308 109.275 156.308C108.799 156.308 108.365 156.42 107.973 156.644C107.581 156.868 107.269 157.195 107.035 157.624C106.802 158.053 106.685 158.557 106.685 159.136C106.685 159.724 106.802 160.237 107.035 160.676C107.269 161.105 107.581 161.437 107.973 161.67C108.365 161.894 108.799 162.006 109.275 162.006C109.751 162.006 110.185 161.894 110.577 161.67C110.979 161.437 111.296 161.105 111.529 160.676C111.763 160.237 111.879 159.729 111.879 159.15ZM119.058 155.188C119.992 155.188 120.748 155.473 121.326 156.042C121.905 156.602 122.194 157.414 122.194 158.478V163H120.934V158.66C120.934 157.895 120.743 157.311 120.36 156.91C119.978 156.499 119.455 156.294 118.792 156.294C118.12 156.294 117.584 156.504 117.182 156.924C116.79 157.344 116.594 157.955 116.594 158.758V163H115.32V155.328H116.594V156.42C116.846 156.028 117.187 155.725 117.616 155.51C118.055 155.295 118.536 155.188 119.058 155.188ZM126.991 163.126C126.403 163.126 125.876 163.028 125.409 162.832C124.943 162.627 124.574 162.347 124.303 161.992C124.033 161.628 123.883 161.213 123.855 160.746H125.171C125.209 161.129 125.386 161.441 125.703 161.684C126.03 161.927 126.455 162.048 126.977 162.048C127.463 162.048 127.845 161.941 128.125 161.726C128.405 161.511 128.545 161.241 128.545 160.914C128.545 160.578 128.396 160.331 128.097 160.172C127.799 160.004 127.337 159.841 126.711 159.682C126.142 159.533 125.675 159.383 125.311 159.234C124.957 159.075 124.649 158.847 124.387 158.548C124.135 158.24 124.009 157.839 124.009 157.344C124.009 156.952 124.126 156.593 124.359 156.266C124.593 155.939 124.924 155.683 125.353 155.496C125.783 155.3 126.273 155.202 126.823 155.202C127.673 155.202 128.359 155.417 128.881 155.846C129.404 156.275 129.684 156.863 129.721 157.61H128.447C128.419 157.209 128.256 156.887 127.957 156.644C127.668 156.401 127.276 156.28 126.781 156.28C126.324 156.28 125.96 156.378 125.689 156.574C125.419 156.77 125.283 157.027 125.283 157.344C125.283 157.596 125.363 157.806 125.521 157.974C125.689 158.133 125.895 158.263 126.137 158.366C126.389 158.459 126.735 158.567 127.173 158.688C127.724 158.837 128.172 158.987 128.517 159.136C128.863 159.276 129.157 159.491 129.399 159.78C129.651 160.069 129.782 160.447 129.791 160.914C129.791 161.334 129.675 161.712 129.441 162.048C129.208 162.384 128.877 162.65 128.447 162.846C128.027 163.033 127.542 163.126 126.991 163.126ZM132.864 152.64V163H131.59V152.64H132.864ZM134.559 159.136C134.559 158.352 134.718 157.666 135.035 157.078C135.352 156.481 135.786 156.019 136.337 155.692C136.897 155.365 137.518 155.202 138.199 155.202C138.871 155.202 139.454 155.347 139.949 155.636C140.444 155.925 140.812 156.289 141.055 156.728V155.328H142.343V163H141.055V161.572C140.803 162.02 140.425 162.393 139.921 162.692C139.426 162.981 138.848 163.126 138.185 163.126C137.504 163.126 136.888 162.958 136.337 162.622C135.786 162.286 135.352 161.815 135.035 161.208C134.718 160.601 134.559 159.911 134.559 159.136ZM141.055 159.15C141.055 158.571 140.938 158.067 140.705 157.638C140.472 157.209 140.154 156.882 139.753 156.658C139.361 156.425 138.927 156.308 138.451 156.308C137.975 156.308 137.541 156.42 137.149 156.644C136.757 156.868 136.444 157.195 136.211 157.624C135.978 158.053 135.861 158.557 135.861 159.136C135.861 159.724 135.978 160.237 136.211 160.676C136.444 161.105 136.757 161.437 137.149 161.67C137.541 161.894 137.975 162.006 138.451 162.006C138.927 162.006 139.361 161.894 139.753 161.67C140.154 161.437 140.472 161.105 140.705 160.676C140.938 160.237 141.055 159.729 141.055 159.15ZM146.05 156.378V160.9C146.05 161.273 146.129 161.539 146.288 161.698C146.447 161.847 146.722 161.922 147.114 161.922H148.052V163H146.904C146.195 163 145.663 162.837 145.308 162.51C144.953 162.183 144.776 161.647 144.776 160.9V156.378H143.782V155.328H144.776V153.396H146.05V155.328H148.052V156.378H146.05ZM156.596 158.87C156.596 159.113 156.582 159.369 156.554 159.64H150.422C150.468 160.396 150.725 160.989 151.192 161.418C151.668 161.838 152.242 162.048 152.914 162.048C153.464 162.048 153.922 161.922 154.286 161.67C154.659 161.409 154.92 161.063 155.07 160.634H156.442C156.236 161.371 155.826 161.973 155.21 162.44C154.594 162.897 153.828 163.126 152.914 163.126C152.186 163.126 151.532 162.963 150.954 162.636C150.384 162.309 149.936 161.847 149.61 161.25C149.283 160.643 149.12 159.943 149.12 159.15C149.12 158.357 149.278 157.661 149.596 157.064C149.913 156.467 150.356 156.009 150.926 155.692C151.504 155.365 152.167 155.202 152.914 155.202C153.642 155.202 154.286 155.361 154.846 155.678C155.406 155.995 155.835 156.434 156.134 156.994C156.442 157.545 156.596 158.17 156.596 158.87ZM155.28 158.604C155.28 158.119 155.172 157.703 154.958 157.358C154.743 157.003 154.449 156.737 154.076 156.56C153.712 156.373 153.306 156.28 152.858 156.28C152.214 156.28 151.663 156.485 151.206 156.896C150.758 157.307 150.501 157.876 150.436 158.604H155.28ZM157.801 159.136C157.801 158.352 157.96 157.666 158.277 157.078C158.595 156.481 159.029 156.019 159.579 155.692C160.139 155.365 160.765 155.202 161.455 155.202C162.053 155.202 162.608 155.342 163.121 155.622C163.635 155.893 164.027 156.252 164.297 156.7V152.64H165.585V163H164.297V161.558C164.045 162.015 163.672 162.393 163.177 162.692C162.683 162.981 162.104 163.126 161.441 163.126C160.76 163.126 160.139 162.958 159.579 162.622C159.029 162.286 158.595 161.815 158.277 161.208C157.96 160.601 157.801 159.911 157.801 159.136ZM164.297 159.15C164.297 158.571 164.181 158.067 163.947 157.638C163.714 157.209 163.397 156.882 162.995 156.658C162.603 156.425 162.169 156.308 161.693 156.308C161.217 156.308 160.783 156.42 160.391 156.644C159.999 156.868 159.687 157.195 159.453 157.624C159.22 158.053 159.103 158.557 159.103 159.136C159.103 159.724 159.22 160.237 159.453 160.676C159.687 161.105 159.999 161.437 160.391 161.67C160.783 161.894 161.217 162.006 161.693 162.006C162.169 162.006 162.603 161.894 162.995 161.67C163.397 161.437 163.714 161.105 163.947 160.676C164.181 160.237 164.297 159.729 164.297 159.15ZM172.129 154.082C171.886 154.082 171.681 153.998 171.513 153.83C171.345 153.662 171.261 153.457 171.261 153.214C171.261 152.971 171.345 152.766 171.513 152.598C171.681 152.43 171.886 152.346 172.129 152.346C172.362 152.346 172.558 152.43 172.717 152.598C172.885 152.766 172.969 152.971 172.969 153.214C172.969 153.457 172.885 153.662 172.717 153.83C172.558 153.998 172.362 154.082 172.129 154.082ZM172.745 155.328V163H171.471V155.328H172.745ZM178.654 155.188C179.587 155.188 180.343 155.473 180.922 156.042C181.501 156.602 181.79 157.414 181.79 158.478V163H180.53V158.66C180.53 157.895 180.339 157.311 179.956 156.91C179.573 156.499 179.051 156.294 178.388 156.294C177.716 156.294 177.179 156.504 176.778 156.924C176.386 157.344 176.19 157.955 176.19 158.758V163H174.916V155.328H176.19V156.42C176.442 156.028 176.783 155.725 177.212 155.51C177.651 155.295 178.131 155.188 178.654 155.188ZM185.425 156.378V160.9C185.425 161.273 185.504 161.539 185.663 161.698C185.822 161.847 186.097 161.922 186.489 161.922H187.427V163H186.279C185.57 163 185.038 162.837 184.683 162.51C184.328 162.183 184.151 161.647 184.151 160.9V156.378H183.157V155.328H184.151V153.396H185.425V155.328H187.427V156.378H185.425ZM192.317 163.126C191.598 163.126 190.945 162.963 190.357 162.636C189.778 162.309 189.321 161.847 188.985 161.25C188.658 160.643 188.495 159.943 188.495 159.15C188.495 158.366 188.663 157.675 188.999 157.078C189.344 156.471 189.811 156.009 190.399 155.692C190.987 155.365 191.645 155.202 192.373 155.202C193.101 155.202 193.759 155.365 194.347 155.692C194.935 156.009 195.397 156.467 195.733 157.064C196.078 157.661 196.251 158.357 196.251 159.15C196.251 159.943 196.073 160.643 195.719 161.25C195.373 161.847 194.902 162.309 194.305 162.636C193.707 162.963 193.045 163.126 192.317 163.126ZM192.317 162.006C192.774 162.006 193.203 161.899 193.605 161.684C194.006 161.469 194.328 161.147 194.571 160.718C194.823 160.289 194.949 159.766 194.949 159.15C194.949 158.534 194.827 158.011 194.585 157.582C194.342 157.153 194.025 156.835 193.633 156.63C193.241 156.415 192.816 156.308 192.359 156.308C191.892 156.308 191.463 156.415 191.071 156.63C190.688 156.835 190.38 157.153 190.147 157.582C189.913 158.011 189.797 158.534 189.797 159.15C189.797 159.775 189.909 160.303 190.133 160.732C190.366 161.161 190.674 161.483 191.057 161.698C191.439 161.903 191.859 162.006 192.317 162.006ZM201.182 159.15C201.182 158.357 201.341 157.666 201.658 157.078C201.975 156.481 202.414 156.019 202.974 155.692C203.543 155.365 204.192 155.202 204.92 155.202C205.863 155.202 206.637 155.431 207.244 155.888C207.86 156.345 208.266 156.98 208.462 157.792H207.09C206.959 157.325 206.703 156.957 206.32 156.686C205.947 156.415 205.48 156.28 204.92 156.28C204.192 156.28 203.604 156.532 203.156 157.036C202.708 157.531 202.484 158.235 202.484 159.15C202.484 160.074 202.708 160.788 203.156 161.292C203.604 161.796 204.192 162.048 204.92 162.048C205.48 162.048 205.947 161.917 206.32 161.656C206.693 161.395 206.95 161.021 207.09 160.536H208.462C208.257 161.32 207.846 161.95 207.23 162.426C206.614 162.893 205.844 163.126 204.92 163.126C204.192 163.126 203.543 162.963 202.974 162.636C202.414 162.309 201.975 161.847 201.658 161.25C201.341 160.653 201.182 159.953 201.182 159.15ZM213.508 163.126C212.789 163.126 212.136 162.963 211.548 162.636C210.969 162.309 210.512 161.847 210.176 161.25C209.849 160.643 209.686 159.943 209.686 159.15C209.686 158.366 209.854 157.675 210.19 157.078C210.535 156.471 211.002 156.009 211.59 155.692C212.178 155.365 212.836 155.202 213.564 155.202C214.292 155.202 214.95 155.365 215.538 155.692C216.126 156.009 216.588 156.467 216.924 157.064C217.269 157.661 217.442 158.357 217.442 159.15C217.442 159.943 217.265 160.643 216.91 161.25C216.565 161.847 216.093 162.309 215.496 162.636C214.899 162.963 214.236 163.126 213.508 163.126ZM213.508 162.006C213.965 162.006 214.395 161.899 214.796 161.684C215.197 161.469 215.519 161.147 215.762 160.718C216.014 160.289 216.14 159.766 216.14 159.15C216.14 158.534 216.019 158.011 215.776 157.582C215.533 157.153 215.216 156.835 214.824 156.63C214.432 156.415 214.007 156.308 213.55 156.308C213.083 156.308 212.654 156.415 212.262 156.63C211.879 156.835 211.571 157.153 211.338 157.582C211.105 158.011 210.988 158.534 210.988 159.15C210.988 159.775 211.1 160.303 211.324 160.732C211.557 161.161 211.865 161.483 212.248 161.698C212.631 161.903 213.051 162.006 213.508 162.006ZM228.343 155.188C228.94 155.188 229.472 155.314 229.939 155.566C230.406 155.809 230.774 156.177 231.045 156.672C231.316 157.167 231.451 157.769 231.451 158.478V163H230.191V158.66C230.191 157.895 230 157.311 229.617 156.91C229.244 156.499 228.735 156.294 228.091 156.294C227.428 156.294 226.901 156.509 226.509 156.938C226.117 157.358 225.921 157.969 225.921 158.772V163H224.661V158.66C224.661 157.895 224.47 157.311 224.087 156.91C223.714 156.499 223.205 156.294 222.561 156.294C221.898 156.294 221.371 156.509 220.979 156.938C220.587 157.358 220.391 157.969 220.391 158.772V163H219.117V155.328H220.391V156.434C220.643 156.033 220.979 155.725 221.399 155.51C221.828 155.295 222.3 155.188 222.813 155.188C223.457 155.188 224.026 155.333 224.521 155.622C225.016 155.911 225.384 156.336 225.627 156.896C225.842 156.355 226.196 155.935 226.691 155.636C227.186 155.337 227.736 155.188 228.343 155.188ZM234.815 156.742C235.067 156.303 235.44 155.939 235.935 155.65C236.439 155.351 237.022 155.202 237.685 155.202C238.366 155.202 238.982 155.365 239.533 155.692C240.093 156.019 240.532 156.481 240.849 157.078C241.166 157.666 241.325 158.352 241.325 159.136C241.325 159.911 241.166 160.601 240.849 161.208C240.532 161.815 240.093 162.286 239.533 162.622C238.982 162.958 238.366 163.126 237.685 163.126C237.032 163.126 236.453 162.981 235.949 162.692C235.454 162.393 235.076 162.025 234.815 161.586V166.64H233.541V155.328H234.815V156.742ZM240.023 159.136C240.023 158.557 239.906 158.053 239.673 157.624C239.44 157.195 239.122 156.868 238.721 156.644C238.329 156.42 237.895 156.308 237.419 156.308C236.952 156.308 236.518 156.425 236.117 156.658C235.725 156.882 235.408 157.213 235.165 157.652C234.932 158.081 234.815 158.581 234.815 159.15C234.815 159.729 234.932 160.237 235.165 160.676C235.408 161.105 235.725 161.437 236.117 161.67C236.518 161.894 236.952 162.006 237.419 162.006C237.895 162.006 238.329 161.894 238.721 161.67C239.122 161.437 239.44 161.105 239.673 160.676C239.906 160.237 240.023 159.724 240.023 159.136ZM244.276 156.574C244.5 156.135 244.817 155.795 245.228 155.552C245.648 155.309 246.156 155.188 246.754 155.188V156.504H246.418C244.99 156.504 244.276 157.279 244.276 158.828V163H243.002V155.328H244.276V156.574ZM255.224 158.87C255.224 159.113 255.21 159.369 255.182 159.64H249.05C249.097 160.396 249.354 160.989 249.82 161.418C250.296 161.838 250.87 162.048 251.542 162.048C252.093 162.048 252.55 161.922 252.914 161.67C253.288 161.409 253.549 161.063 253.698 160.634H255.07C254.865 161.371 254.454 161.973 253.838 162.44C253.222 162.897 252.457 163.126 251.542 163.126C250.814 163.126 250.161 162.963 249.582 162.636C249.013 162.309 248.565 161.847 248.238 161.25C247.912 160.643 247.748 159.943 247.748 159.15C247.748 158.357 247.907 157.661 248.224 157.064C248.542 156.467 248.985 156.009 249.554 155.692C250.133 155.365 250.796 155.202 251.542 155.202C252.27 155.202 252.914 155.361 253.474 155.678C254.034 155.995 254.464 156.434 254.762 156.994C255.07 157.545 255.224 158.17 255.224 158.87ZM253.908 158.604C253.908 158.119 253.801 157.703 253.586 157.358C253.372 157.003 253.078 156.737 252.704 156.56C252.34 156.373 251.934 156.28 251.486 156.28C250.842 156.28 250.292 156.485 249.834 156.896C249.386 157.307 249.13 157.876 249.064 158.604H253.908ZM260.714 155.188C261.293 155.188 261.815 155.314 262.282 155.566C262.749 155.809 263.113 156.177 263.374 156.672C263.645 157.167 263.78 157.769 263.78 158.478V163H262.52V158.66C262.52 157.895 262.329 157.311 261.946 156.91C261.563 156.499 261.041 156.294 260.378 156.294C259.706 156.294 259.169 156.504 258.768 156.924C258.376 157.344 258.18 157.955 258.18 158.758V163H256.906V152.64H258.18V156.42C258.432 156.028 258.777 155.725 259.216 155.51C259.664 155.295 260.163 155.188 260.714 155.188ZM272.861 158.87C272.861 159.113 272.847 159.369 272.819 159.64H266.687C266.734 160.396 266.991 160.989 267.457 161.418C267.933 161.838 268.507 162.048 269.179 162.048C269.73 162.048 270.187 161.922 270.551 161.67C270.925 161.409 271.186 161.063 271.335 160.634H272.707C272.502 161.371 272.091 161.973 271.475 162.44C270.859 162.897 270.094 163.126 269.179 163.126C268.451 163.126 267.798 162.963 267.219 162.636C266.65 162.309 266.202 161.847 265.875 161.25C265.549 160.643 265.385 159.943 265.385 159.15C265.385 158.357 265.544 157.661 265.861 157.064C266.179 156.467 266.622 156.009 267.191 155.692C267.77 155.365 268.433 155.202 269.179 155.202C269.907 155.202 270.551 155.361 271.111 155.678C271.671 155.995 272.101 156.434 272.399 156.994C272.707 157.545 272.861 158.17 272.861 158.87ZM271.545 158.604C271.545 158.119 271.438 157.703 271.223 157.358C271.009 157.003 270.715 156.737 270.341 156.56C269.977 156.373 269.571 156.28 269.123 156.28C268.479 156.28 267.929 156.485 267.471 156.896C267.023 157.307 266.767 157.876 266.701 158.604H271.545ZM278.281 155.188C279.214 155.188 279.97 155.473 280.549 156.042C281.128 156.602 281.417 157.414 281.417 158.478V163H280.157V158.66C280.157 157.895 279.966 157.311 279.583 156.91C279.2 156.499 278.678 156.294 278.015 156.294C277.343 156.294 276.806 156.504 276.405 156.924C276.013 157.344 275.817 157.955 275.817 158.758V163H274.543V155.328H275.817V156.42C276.069 156.028 276.41 155.725 276.839 155.51C277.278 155.295 277.758 155.188 278.281 155.188ZM286.214 163.126C285.626 163.126 285.099 163.028 284.632 162.832C284.165 162.627 283.797 162.347 283.526 161.992C283.255 161.628 283.106 161.213 283.078 160.746H284.394C284.431 161.129 284.609 161.441 284.926 161.684C285.253 161.927 285.677 162.048 286.2 162.048C286.685 162.048 287.068 161.941 287.348 161.726C287.628 161.511 287.768 161.241 287.768 160.914C287.768 160.578 287.619 160.331 287.32 160.172C287.021 160.004 286.559 159.841 285.934 159.682C285.365 159.533 284.898 159.383 284.534 159.234C284.179 159.075 283.871 158.847 283.61 158.548C283.358 158.24 283.232 157.839 283.232 157.344C283.232 156.952 283.349 156.593 283.582 156.266C283.815 155.939 284.147 155.683 284.576 155.496C285.005 155.3 285.495 155.202 286.046 155.202C286.895 155.202 287.581 155.417 288.104 155.846C288.627 156.275 288.907 156.863 288.944 157.61H287.67C287.642 157.209 287.479 156.887 287.18 156.644C286.891 156.401 286.499 156.28 286.004 156.28C285.547 156.28 285.183 156.378 284.912 156.574C284.641 156.77 284.506 157.027 284.506 157.344C284.506 157.596 284.585 157.806 284.744 157.974C284.912 158.133 285.117 158.263 285.36 158.366C285.612 158.459 285.957 158.567 286.396 158.688C286.947 158.837 287.395 158.987 287.74 159.136C288.085 159.276 288.379 159.491 288.622 159.78C288.874 160.069 289.005 160.447 289.014 160.914C289.014 161.334 288.897 161.712 288.664 162.048C288.431 162.384 288.099 162.65 287.67 162.846C287.25 163.033 286.765 163.126 286.214 163.126ZM291.47 154.082C291.228 154.082 291.022 153.998 290.854 153.83C290.686 153.662 290.602 153.457 290.602 153.214C290.602 152.971 290.686 152.766 290.854 152.598C291.022 152.43 291.228 152.346 291.47 152.346C291.704 152.346 291.9 152.43 292.058 152.598C292.226 152.766 292.31 152.971 292.31 153.214C292.31 153.457 292.226 153.662 292.058 153.83C291.9 153.998 291.704 154.082 291.47 154.082ZM292.086 155.328V163H290.812V155.328H292.086ZM297.114 161.824L299.494 155.328H300.852L297.842 163H296.358L293.348 155.328H294.72L297.114 161.824ZM309.105 158.87C309.105 159.113 309.091 159.369 309.063 159.64H302.931C302.978 160.396 303.235 160.989 303.701 161.418C304.177 161.838 304.751 162.048 305.423 162.048C305.974 162.048 306.431 161.922 306.795 161.67C307.169 161.409 307.43 161.063 307.579 160.634H308.951C308.746 161.371 308.335 161.973 307.719 162.44C307.103 162.897 306.338 163.126 305.423 163.126C304.695 163.126 304.042 162.963 303.463 162.636C302.894 162.309 302.446 161.847 302.119 161.25C301.793 160.643 301.629 159.943 301.629 159.15C301.629 158.357 301.788 157.661 302.105 157.064C302.423 156.467 302.866 156.009 303.435 155.692C304.014 155.365 304.677 155.202 305.423 155.202C306.151 155.202 306.795 155.361 307.355 155.678C307.915 155.995 308.345 156.434 308.643 156.994C308.951 157.545 309.105 158.17 309.105 158.87ZM307.789 158.604C307.789 158.119 307.682 157.703 307.467 157.358C307.253 157.003 306.959 156.737 306.585 156.56C306.221 156.373 305.815 156.28 305.367 156.28C304.723 156.28 304.173 156.485 303.715 156.896C303.267 157.307 303.011 157.876 302.945 158.604H307.789ZM314.043 159.136C314.043 158.352 314.202 157.666 314.519 157.078C314.837 156.481 315.271 156.019 315.821 155.692C316.381 155.365 317.007 155.202 317.697 155.202C318.295 155.202 318.85 155.342 319.363 155.622C319.877 155.893 320.269 156.252 320.539 156.7V152.64H321.827V163H320.539V161.558C320.287 162.015 319.914 162.393 319.419 162.692C318.925 162.981 318.346 163.126 317.683 163.126C317.002 163.126 316.381 162.958 315.821 162.622C315.271 162.286 314.837 161.815 314.519 161.208C314.202 160.601 314.043 159.911 314.043 159.136ZM320.539 159.15C320.539 158.571 320.423 158.067 320.189 157.638C319.956 157.209 319.639 156.882 319.237 156.658C318.845 156.425 318.411 156.308 317.935 156.308C317.459 156.308 317.025 156.42 316.633 156.644C316.241 156.868 315.929 157.195 315.695 157.624C315.462 158.053 315.345 158.557 315.345 159.136C315.345 159.724 315.462 160.237 315.695 160.676C315.929 161.105 316.241 161.437 316.633 161.67C317.025 161.894 317.459 162.006 317.935 162.006C318.411 162.006 318.845 161.894 319.237 161.67C319.639 161.437 319.956 161.105 320.189 160.676C320.423 160.237 320.539 159.729 320.539 159.15ZM324.638 154.082C324.396 154.082 324.19 153.998 324.022 153.83C323.854 153.662 323.77 153.457 323.77 153.214C323.77 152.971 323.854 152.766 324.022 152.598C324.19 152.43 324.396 152.346 324.638 152.346C324.872 152.346 325.068 152.43 325.226 152.598C325.394 152.766 325.478 152.971 325.478 153.214C325.478 153.457 325.394 153.662 325.226 153.83C325.068 153.998 324.872 154.082 324.638 154.082ZM325.254 155.328V163H323.98V155.328H325.254ZM330.59 155.202C331.252 155.202 331.831 155.347 332.326 155.636C332.83 155.925 333.203 156.289 333.446 156.728V155.328H334.734V163.168C334.734 163.868 334.584 164.489 334.286 165.03C333.987 165.581 333.558 166.01 332.998 166.318C332.447 166.626 331.803 166.78 331.066 166.78C330.058 166.78 329.218 166.542 328.546 166.066C327.874 165.59 327.477 164.941 327.356 164.12H328.616C328.756 164.587 329.045 164.96 329.484 165.24C329.922 165.529 330.45 165.674 331.066 165.674C331.766 165.674 332.335 165.455 332.774 165.016C333.222 164.577 333.446 163.961 333.446 163.168V161.558C333.194 162.006 332.82 162.379 332.326 162.678C331.831 162.977 331.252 163.126 330.59 163.126C329.908 163.126 329.288 162.958 328.728 162.622C328.177 162.286 327.743 161.815 327.426 161.208C327.108 160.601 326.95 159.911 326.95 159.136C326.95 158.352 327.108 157.666 327.426 157.078C327.743 156.481 328.177 156.019 328.728 155.692C329.288 155.365 329.908 155.202 330.59 155.202ZM333.446 159.15C333.446 158.571 333.329 158.067 333.096 157.638C332.862 157.209 332.545 156.882 332.144 156.658C331.752 156.425 331.318 156.308 330.842 156.308C330.366 156.308 329.932 156.42 329.54 156.644C329.148 156.868 328.835 157.195 328.602 157.624C328.368 158.053 328.252 158.557 328.252 159.136C328.252 159.724 328.368 160.237 328.602 160.676C328.835 161.105 329.148 161.437 329.54 161.67C329.932 161.894 330.366 162.006 330.842 162.006C331.318 162.006 331.752 161.894 332.144 161.67C332.545 161.437 332.862 161.105 333.096 160.676C333.329 160.237 333.446 159.729 333.446 159.15ZM337.545 154.082C337.302 154.082 337.097 153.998 336.929 153.83C336.761 153.662 336.677 153.457 336.677 153.214C336.677 152.971 336.761 152.766 336.929 152.598C337.097 152.43 337.302 152.346 337.545 152.346C337.778 152.346 337.974 152.43 338.133 152.598C338.301 152.766 338.385 152.971 338.385 153.214C338.385 153.457 338.301 153.662 338.133 153.83C337.974 153.998 337.778 154.082 337.545 154.082ZM338.161 155.328V163H336.887V155.328H338.161ZM341.886 156.378V160.9C341.886 161.273 341.965 161.539 342.124 161.698C342.283 161.847 342.558 161.922 342.95 161.922H343.888V163H342.74C342.031 163 341.499 162.837 341.144 162.51C340.789 162.183 340.612 161.647 340.612 160.9V156.378H339.618V155.328H340.612V153.396H341.886V155.328H343.888V156.378H341.886ZM344.956 159.136C344.956 158.352 345.114 157.666 345.432 157.078C345.749 156.481 346.183 156.019 346.734 155.692C347.294 155.365 347.914 155.202 348.596 155.202C349.268 155.202 349.851 155.347 350.346 155.636C350.84 155.925 351.209 156.289 351.452 156.728V155.328H352.74V163H351.452V161.572C351.2 162.02 350.822 162.393 350.318 162.692C349.823 162.981 349.244 163.126 348.582 163.126C347.9 163.126 347.284 162.958 346.734 162.622C346.183 162.286 345.749 161.815 345.432 161.208C345.114 160.601 344.956 159.911 344.956 159.136ZM351.452 159.15C351.452 158.571 351.335 158.067 351.102 157.638C350.868 157.209 350.551 156.882 350.15 156.658C349.758 156.425 349.324 156.308 348.848 156.308C348.372 156.308 347.938 156.42 347.546 156.644C347.154 156.868 346.841 157.195 346.608 157.624C346.374 158.053 346.258 158.557 346.258 159.136C346.258 159.724 346.374 160.237 346.608 160.676C346.841 161.105 347.154 161.437 347.546 161.67C347.938 161.894 348.372 162.006 348.848 162.006C349.324 162.006 349.758 161.894 350.15 161.67C350.551 161.437 350.868 161.105 351.102 160.676C351.335 160.237 351.452 159.729 351.452 159.15ZM356.166 152.64V163H354.892V152.64H356.166ZM8.078 186.87C8.078 187.113 8.064 187.369 8.036 187.64H1.904C1.95067 188.396 2.20733 188.989 2.674 189.418C3.15 189.838 3.724 190.048 4.396 190.048C4.94667 190.048 5.404 189.922 5.768 189.67C6.14133 189.409 6.40267 189.063 6.552 188.634H7.924C7.71867 189.371 7.308 189.973 6.692 190.44C6.076 190.897 5.31067 191.126 4.396 191.126C3.668 191.126 3.01467 190.963 2.436 190.636C1.86667 190.309 1.41867 189.847 1.092 189.25C0.765333 188.643 0.602 187.943 0.602 187.15C0.602 186.357 0.760667 185.661 1.078 185.064C1.39533 184.467 1.83867 184.009 2.408 183.692C2.98667 183.365 3.64933 183.202 4.396 183.202C5.124 183.202 5.768 183.361 6.328 183.678C6.888 183.995 7.31733 184.434 7.616 184.994C7.924 185.545 8.078 186.17 8.078 186.87ZM6.762 186.604C6.762 186.119 6.65467 185.703 6.44 185.358C6.22533 185.003 5.93133 184.737 5.558 184.56C5.194 184.373 4.788 184.28 4.34 184.28C3.696 184.28 3.14533 184.485 2.688 184.896C2.24 185.307 1.98333 185.876 1.918 186.604H6.762ZM13.4976 183.188C14.431 183.188 15.187 183.473 15.7656 184.042C16.3443 184.602 16.6336 185.414 16.6336 186.478V191H15.3736V186.66C15.3736 185.895 15.1823 185.311 14.7996 184.91C14.417 184.499 13.8943 184.294 13.2316 184.294C12.5596 184.294 12.023 184.504 11.6216 184.924C11.2296 185.344 11.0336 185.955 11.0336 186.758V191H9.75964V183.328H11.0336V184.42C11.2856 184.028 11.6263 183.725 12.0556 183.51C12.4943 183.295 12.975 183.188 13.4976 183.188ZM21.5707 189.824L23.9507 183.328H25.3087L22.2987 191H20.8147L17.8047 183.328H19.1767L21.5707 189.824ZM27.2204 182.082C26.9777 182.082 26.7724 181.998 26.6044 181.83C26.4364 181.662 26.3524 181.457 26.3524 181.214C26.3524 180.971 26.4364 180.766 26.6044 180.598C26.7724 180.43 26.9777 180.346 27.2204 180.346C27.4537 180.346 27.6497 180.43 27.8084 180.598C27.9764 180.766 28.0604 180.971 28.0604 181.214C28.0604 181.457 27.9764 181.662 27.8084 181.83C27.6497 181.998 27.4537 182.082 27.2204 182.082ZM27.8364 183.328V191H26.5624V183.328H27.8364ZM31.2817 184.574C31.5057 184.135 31.823 183.795 32.2337 183.552C32.6537 183.309 33.1624 183.188 33.7597 183.188V184.504H33.4237C31.9957 184.504 31.2817 185.279 31.2817 186.828V191H30.0077V183.328H31.2817V184.574ZM38.5763 191.126C37.8577 191.126 37.2043 190.963 36.6163 190.636C36.0377 190.309 35.5803 189.847 35.2443 189.25C34.9177 188.643 34.7543 187.943 34.7543 187.15C34.7543 186.366 34.9223 185.675 35.2583 185.078C35.6037 184.471 36.0703 184.009 36.6583 183.692C37.2463 183.365 37.9043 183.202 38.6323 183.202C39.3603 183.202 40.0183 183.365 40.6063 183.692C41.1943 184.009 41.6563 184.467 41.9923 185.064C42.3377 185.661 42.5103 186.357 42.5103 187.15C42.5103 187.943 42.333 188.643 41.9783 189.25C41.633 189.847 41.1617 190.309 40.5643 190.636C39.967 190.963 39.3043 191.126 38.5763 191.126ZM38.5763 190.006C39.0337 190.006 39.463 189.899 39.8643 189.684C40.2657 189.469 40.5877 189.147 40.8303 188.718C41.0823 188.289 41.2083 187.766 41.2083 187.15C41.2083 186.534 41.087 186.011 40.8443 185.582C40.6017 185.153 40.2843 184.835 39.8923 184.63C39.5003 184.415 39.0757 184.308 38.6183 184.308C38.1517 184.308 37.7223 184.415 37.3303 184.63C36.9477 184.835 36.6397 185.153 36.4063 185.582C36.173 186.011 36.0563 186.534 36.0563 187.15C36.0563 187.775 36.1683 188.303 36.3923 188.732C36.6257 189.161 36.9337 189.483 37.3163 189.698C37.699 189.903 38.119 190.006 38.5763 190.006ZM47.9234 183.188C48.8568 183.188 49.6128 183.473 50.1914 184.042C50.7701 184.602 51.0594 185.414 51.0594 186.478V191H49.7994V186.66C49.7994 185.895 49.6081 185.311 49.2254 184.91C48.8428 184.499 48.3201 184.294 47.6574 184.294C46.9854 184.294 46.4488 184.504 46.0474 184.924C45.6554 185.344 45.4594 185.955 45.4594 186.758V191H44.1854V183.328H45.4594V184.42C45.7114 184.028 46.0521 183.725 46.4814 183.51C46.9201 183.295 47.4008 183.188 47.9234 183.188ZM62.3665 183.188C62.9638 183.188 63.4958 183.314 63.9625 183.566C64.4292 183.809 64.7978 184.177 65.0685 184.672C65.3392 185.167 65.4745 185.769 65.4745 186.478V191H64.2145V186.66C64.2145 185.895 64.0232 185.311 63.6405 184.91C63.2672 184.499 62.7585 184.294 62.1145 184.294C61.4518 184.294 60.9245 184.509 60.5325 184.938C60.1405 185.358 59.9445 185.969 59.9445 186.772V191H58.6845V186.66C58.6845 185.895 58.4932 185.311 58.1105 184.91C57.7372 184.499 57.2285 184.294 56.5845 184.294C55.9218 184.294 55.3945 184.509 55.0025 184.938C54.6105 185.358 54.4145 185.969 54.4145 186.772V191H53.1405V183.328H54.4145V184.434C54.6665 184.033 55.0025 183.725 55.4225 183.51C55.8518 183.295 56.3232 183.188 56.8365 183.188C57.4805 183.188 58.0498 183.333 58.5445 183.622C59.0392 183.911 59.4078 184.336 59.6505 184.896C59.8652 184.355 60.2198 183.935 60.7145 183.636C61.2092 183.337 61.7598 183.188 62.3665 183.188ZM74.5643 186.87C74.5643 187.113 74.5503 187.369 74.5223 187.64H68.3903C68.437 188.396 68.6937 188.989 69.1603 189.418C69.6363 189.838 70.2103 190.048 70.8823 190.048C71.433 190.048 71.8903 189.922 72.2543 189.67C72.6277 189.409 72.889 189.063 73.0383 188.634H74.4103C74.205 189.371 73.7943 189.973 73.1783 190.44C72.5623 190.897 71.797 191.126 70.8823 191.126C70.1543 191.126 69.501 190.963 68.9223 190.636C68.353 190.309 67.905 189.847 67.5783 189.25C67.2517 188.643 67.0883 187.943 67.0883 187.15C67.0883 186.357 67.247 185.661 67.5643 185.064C67.8817 184.467 68.325 184.009 68.8943 183.692C69.473 183.365 70.1357 183.202 70.8823 183.202C71.6103 183.202 72.2543 183.361 72.8143 183.678C73.3743 183.995 73.8037 184.434 74.1023 184.994C74.4103 185.545 74.5643 186.17 74.5643 186.87ZM73.2483 186.604C73.2483 186.119 73.141 185.703 72.9263 185.358C72.7117 185.003 72.4177 184.737 72.0443 184.56C71.6803 184.373 71.2743 184.28 70.8263 184.28C70.1823 184.28 69.6317 184.485 69.1743 184.896C68.7263 185.307 68.4697 185.876 68.4043 186.604H73.2483ZM79.984 183.188C80.9173 183.188 81.6733 183.473 82.252 184.042C82.8306 184.602 83.12 185.414 83.12 186.478V191H81.86V186.66C81.86 185.895 81.6686 185.311 81.286 184.91C80.9033 184.499 80.3806 184.294 79.718 184.294C79.046 184.294 78.5093 184.504 78.108 184.924C77.716 185.344 77.52 185.955 77.52 186.758V191H76.246V183.328H77.52V184.42C77.772 184.028 78.1126 183.725 78.542 183.51C78.9806 183.295 79.4613 183.188 79.984 183.188ZM86.755 184.378V188.9C86.755 189.273 86.8344 189.539 86.993 189.698C87.1517 189.847 87.427 189.922 87.819 189.922H88.757V191H87.609C86.8997 191 86.3677 190.837 86.013 190.51C85.6584 190.183 85.481 189.647 85.481 188.9V184.378H84.487V183.328H85.481V181.396H86.755V183.328H88.757V184.378H86.755ZM93.0167 191.126C92.4287 191.126 91.9013 191.028 91.4347 190.832C90.968 190.627 90.5993 190.347 90.3287 189.992C90.058 189.628 89.9087 189.213 89.8807 188.746H91.1967C91.234 189.129 91.4113 189.441 91.7287 189.684C92.0553 189.927 92.48 190.048 93.0027 190.048C93.488 190.048 93.8707 189.941 94.1507 189.726C94.4307 189.511 94.5707 189.241 94.5707 188.914C94.5707 188.578 94.4213 188.331 94.1227 188.172C93.824 188.004 93.362 187.841 92.7367 187.682C92.1673 187.533 91.7007 187.383 91.3367 187.234C90.982 187.075 90.674 186.847 90.4127 186.548C90.1607 186.24 90.0347 185.839 90.0347 185.344C90.0347 184.952 90.1513 184.593 90.3847 184.266C90.618 183.939 90.9493 183.683 91.3787 183.496C91.808 183.3 92.298 183.202 92.8487 183.202C93.698 183.202 94.384 183.417 94.9067 183.846C95.4293 184.275 95.7093 184.863 95.7467 185.61H94.4727C94.4447 185.209 94.2813 184.887 93.9827 184.644C93.6933 184.401 93.3013 184.28 92.8067 184.28C92.3493 184.28 91.9853 184.378 91.7147 184.574C91.444 184.77 91.3087 185.027 91.3087 185.344C91.3087 185.596 91.388 185.806 91.5467 185.974C91.7147 186.133 91.92 186.263 92.1627 186.366C92.4147 186.459 92.76 186.567 93.1987 186.688C93.7493 186.837 94.1973 186.987 94.5427 187.136C94.888 187.276 95.182 187.491 95.4247 187.78C95.6767 188.069 95.8073 188.447 95.8167 188.914C95.8167 189.334 95.7 189.712 95.4667 190.048C95.2333 190.384 94.902 190.65 94.4727 190.846C94.0527 191.033 93.5673 191.126 93.0167 191.126ZM102.622 184.756C102.883 184.299 103.266 183.925 103.77 183.636C104.274 183.347 104.848 183.202 105.492 183.202C106.182 183.202 106.803 183.365 107.354 183.692C107.904 184.019 108.338 184.481 108.656 185.078C108.973 185.666 109.132 186.352 109.132 187.136C109.132 187.911 108.973 188.601 108.656 189.208C108.338 189.815 107.9 190.286 107.34 190.622C106.789 190.958 106.173 191.126 105.492 191.126C104.829 191.126 104.246 190.981 103.742 190.692C103.247 190.403 102.874 190.034 102.622 189.586V191H101.348V180.64H102.622V184.756ZM107.83 187.136C107.83 186.557 107.713 186.053 107.48 185.624C107.246 185.195 106.929 184.868 106.528 184.644C106.136 184.42 105.702 184.308 105.226 184.308C104.759 184.308 104.325 184.425 103.924 184.658C103.532 184.882 103.214 185.213 102.972 185.652C102.738 186.081 102.622 186.581 102.622 187.15C102.622 187.729 102.738 188.237 102.972 188.676C103.214 189.105 103.532 189.437 103.924 189.67C104.325 189.894 104.759 190.006 105.226 190.006C105.702 190.006 106.136 189.894 106.528 189.67C106.929 189.437 107.246 189.105 107.48 188.676C107.713 188.237 107.83 187.724 107.83 187.136ZM117.612 183.328V191H116.338V189.866C116.096 190.258 115.755 190.566 115.316 190.79C114.887 191.005 114.411 191.112 113.888 191.112C113.291 191.112 112.754 190.991 112.278 190.748C111.802 190.496 111.424 190.123 111.144 189.628C110.874 189.133 110.738 188.531 110.738 187.822V183.328H111.998V187.654C111.998 188.41 112.19 188.993 112.572 189.404C112.955 189.805 113.478 190.006 114.14 190.006C114.822 190.006 115.358 189.796 115.75 189.376C116.142 188.956 116.338 188.345 116.338 187.542V183.328H117.612ZM120.422 182.082C120.179 182.082 119.974 181.998 119.806 181.83C119.638 181.662 119.554 181.457 119.554 181.214C119.554 180.971 119.638 180.766 119.806 180.598C119.974 180.43 120.179 180.346 120.422 180.346C120.655 180.346 120.851 180.43 121.01 180.598C121.178 180.766 121.262 180.971 121.262 181.214C121.262 181.457 121.178 181.662 121.01 181.83C120.851 181.998 120.655 182.082 120.422 182.082ZM121.038 183.328V191H119.764V183.328H121.038ZM124.483 180.64V191H123.209V180.64H124.483ZM128.208 184.378V188.9C128.208 189.273 128.288 189.539 128.446 189.698C128.605 189.847 128.88 189.922 129.272 189.922H130.21V191H129.062C128.353 191 127.821 190.837 127.466 190.51C127.112 190.183 126.934 189.647 126.934 188.9V184.378H125.94V183.328H126.934V181.396H128.208V183.328H130.21V184.378H128.208ZM138.832 191.126C138.114 191.126 137.46 190.963 136.872 190.636C136.294 190.309 135.836 189.847 135.5 189.25C135.174 188.643 135.01 187.943 135.01 187.15C135.01 186.366 135.178 185.675 135.514 185.078C135.86 184.471 136.326 184.009 136.914 183.692C137.502 183.365 138.16 183.202 138.888 183.202C139.616 183.202 140.274 183.365 140.862 183.692C141.45 184.009 141.912 184.467 142.248 185.064C142.594 185.661 142.766 186.357 142.766 187.15C142.766 187.943 142.589 188.643 142.234 189.25C141.889 189.847 141.418 190.309 140.82 190.636C140.223 190.963 139.56 191.126 138.832 191.126ZM138.832 190.006C139.29 190.006 139.719 189.899 140.12 189.684C140.522 189.469 140.844 189.147 141.086 188.718C141.338 188.289 141.464 187.766 141.464 187.15C141.464 186.534 141.343 186.011 141.1 185.582C140.858 185.153 140.54 184.835 140.148 184.63C139.756 184.415 139.332 184.308 138.874 184.308C138.408 184.308 137.978 184.415 137.586 184.63C137.204 184.835 136.896 185.153 136.662 185.582C136.429 186.011 136.312 186.534 136.312 187.15C136.312 187.775 136.424 188.303 136.648 188.732C136.882 189.161 137.19 189.483 137.572 189.698C137.955 189.903 138.375 190.006 138.832 190.006ZM148.179 183.188C149.113 183.188 149.869 183.473 150.447 184.042C151.026 184.602 151.315 185.414 151.315 186.478V191H150.055V186.66C150.055 185.895 149.864 185.311 149.481 184.91C149.099 184.499 148.576 184.294 147.913 184.294C147.241 184.294 146.705 184.504 146.303 184.924C145.911 185.344 145.715 185.955 145.715 186.758V191H144.441V183.328H145.715V184.42C145.967 184.028 146.308 183.725 146.737 183.51C147.176 183.295 147.657 183.188 148.179 183.188ZM158.403 180.64V191H157.129V180.64H158.403ZM160.098 187.136C160.098 186.352 160.257 185.666 160.574 185.078C160.891 184.481 161.325 184.019 161.876 183.692C162.436 183.365 163.057 183.202 163.738 183.202C164.41 183.202 164.993 183.347 165.488 183.636C165.983 183.925 166.351 184.289 166.594 184.728V183.328H167.882V191H166.594V189.572C166.342 190.02 165.964 190.393 165.46 190.692C164.965 190.981 164.387 191.126 163.724 191.126C163.043 191.126 162.427 190.958 161.876 190.622C161.325 190.286 160.891 189.815 160.574 189.208C160.257 188.601 160.098 187.911 160.098 187.136ZM166.594 187.15C166.594 186.571 166.477 186.067 166.244 185.638C166.011 185.209 165.693 184.882 165.292 184.658C164.9 184.425 164.466 184.308 163.99 184.308C163.514 184.308 163.08 184.42 162.688 184.644C162.296 184.868 161.983 185.195 161.75 185.624C161.517 186.053 161.4 186.557 161.4 187.136C161.4 187.724 161.517 188.237 161.75 188.676C161.983 189.105 162.296 189.437 162.688 189.67C163.08 189.894 163.514 190.006 163.99 190.006C164.466 190.006 164.9 189.894 165.292 189.67C165.693 189.437 166.011 189.105 166.244 188.676C166.477 188.237 166.594 187.729 166.594 187.15ZM171.589 184.378V188.9C171.589 189.273 171.668 189.539 171.827 189.698C171.986 189.847 172.261 189.922 172.653 189.922H173.591V191H172.443C171.734 191 171.202 190.837 170.847 190.51C170.492 190.183 170.315 189.647 170.315 188.9V184.378H169.321V183.328H170.315V181.396H171.589V183.328H173.591V184.378H171.589ZM182.135 186.87C182.135 187.113 182.121 187.369 182.093 187.64H175.961C176.007 188.396 176.264 188.989 176.731 189.418C177.207 189.838 177.781 190.048 178.453 190.048C179.003 190.048 179.461 189.922 179.825 189.67C180.198 189.409 180.459 189.063 180.609 188.634H181.981C181.775 189.371 181.365 189.973 180.749 190.44C180.133 190.897 179.367 191.126 178.453 191.126C177.725 191.126 177.071 190.963 176.493 190.636C175.923 190.309 175.475 189.847 175.149 189.25C174.822 188.643 174.659 187.943 174.659 187.15C174.659 186.357 174.817 185.661 175.135 185.064C175.452 184.467 175.895 184.009 176.465 183.692C177.043 183.365 177.706 183.202 178.453 183.202C179.181 183.202 179.825 183.361 180.385 183.678C180.945 183.995 181.374 184.434 181.673 184.994C181.981 185.545 182.135 186.17 182.135 186.87ZM180.819 186.604C180.819 186.119 180.711 185.703 180.497 185.358C180.282 185.003 179.988 184.737 179.615 184.56C179.251 184.373 178.845 184.28 178.397 184.28C177.753 184.28 177.202 184.485 176.745 184.896C176.297 185.307 176.04 185.876 175.975 186.604H180.819ZM186.532 191.126C185.944 191.126 185.417 191.028 184.95 190.832C184.484 190.627 184.115 190.347 183.844 189.992C183.574 189.628 183.424 189.213 183.396 188.746H184.712C184.75 189.129 184.927 189.441 185.244 189.684C185.571 189.927 185.996 190.048 186.518 190.048C187.004 190.048 187.386 189.941 187.666 189.726C187.946 189.511 188.086 189.241 188.086 188.914C188.086 188.578 187.937 188.331 187.638 188.172C187.34 188.004 186.878 187.841 186.252 187.682C185.683 187.533 185.216 187.383 184.852 187.234C184.498 187.075 184.19 186.847 183.928 186.548C183.676 186.24 183.55 185.839 183.55 185.344C183.55 184.952 183.667 184.593 183.9 184.266C184.134 183.939 184.465 183.683 184.894 183.496C185.324 183.3 185.814 183.202 186.364 183.202C187.214 183.202 187.9 183.417 188.422 183.846C188.945 184.275 189.225 184.863 189.262 185.61H187.988C187.96 185.209 187.797 184.887 187.498 184.644C187.209 184.401 186.817 184.28 186.322 184.28C185.865 184.28 185.501 184.378 185.23 184.574C184.96 184.77 184.824 185.027 184.824 185.344C184.824 185.596 184.904 185.806 185.062 185.974C185.23 186.133 185.436 186.263 185.678 186.366C185.93 186.459 186.276 186.567 186.714 186.688C187.265 186.837 187.713 186.987 188.058 187.136C188.404 187.276 188.698 187.491 188.94 187.78C189.192 188.069 189.323 188.447 189.332 188.914C189.332 189.334 189.216 189.712 188.982 190.048C188.749 190.384 188.418 190.65 187.988 190.846C187.568 191.033 187.083 191.126 186.532 191.126ZM192.685 184.378V188.9C192.685 189.273 192.764 189.539 192.923 189.698C193.081 189.847 193.357 189.922 193.749 189.922H194.687V191H193.539C192.829 191 192.297 190.837 191.943 190.51C191.588 190.183 191.411 189.647 191.411 188.9V184.378H190.417V183.328H191.411V181.396H192.685V183.328H194.687V184.378H192.685ZM199.487 187.136C199.487 186.352 199.645 185.666 199.963 185.078C200.28 184.481 200.714 184.019 201.265 183.692C201.825 183.365 202.45 183.202 203.141 183.202C203.738 183.202 204.293 183.342 204.807 183.622C205.32 183.893 205.712 184.252 205.983 184.7V180.64H207.271V191H205.983V189.558C205.731 190.015 205.357 190.393 204.863 190.692C204.368 190.981 203.789 191.126 203.127 191.126C202.445 191.126 201.825 190.958 201.265 190.622C200.714 190.286 200.28 189.815 199.963 189.208C199.645 188.601 199.487 187.911 199.487 187.136ZM205.983 187.15C205.983 186.571 205.866 186.067 205.633 185.638C205.399 185.209 205.082 184.882 204.681 184.658C204.289 184.425 203.855 184.308 203.379 184.308C202.903 184.308 202.469 184.42 202.077 184.644C201.685 184.868 201.372 185.195 201.139 185.624C200.905 186.053 200.789 186.557 200.789 187.136C200.789 187.724 200.905 188.237 201.139 188.676C201.372 189.105 201.685 189.437 202.077 189.67C202.469 189.894 202.903 190.006 203.379 190.006C203.855 190.006 204.289 189.894 204.681 189.67C205.082 189.437 205.399 189.105 205.633 188.676C205.866 188.237 205.983 187.729 205.983 187.15ZM216.424 186.87C216.424 187.113 216.41 187.369 216.382 187.64H210.25C210.296 188.396 210.553 188.989 211.02 189.418C211.496 189.838 212.07 190.048 212.742 190.048C213.292 190.048 213.75 189.922 214.114 189.67C214.487 189.409 214.748 189.063 214.898 188.634H216.27C216.064 189.371 215.654 189.973 215.038 190.44C214.422 190.897 213.656 191.126 212.742 191.126C212.014 191.126 211.36 190.963 210.782 190.636C210.212 190.309 209.764 189.847 209.438 189.25C209.111 188.643 208.948 187.943 208.948 187.15C208.948 186.357 209.106 185.661 209.424 185.064C209.741 184.467 210.184 184.009 210.754 183.692C211.332 183.365 211.995 183.202 212.742 183.202C213.47 183.202 214.114 183.361 214.674 183.678C215.234 183.995 215.663 184.434 215.962 184.994C216.27 185.545 216.424 186.17 216.424 186.87ZM215.108 186.604C215.108 186.119 215 185.703 214.786 185.358C214.571 185.003 214.277 184.737 213.904 184.56C213.54 184.373 213.134 184.28 212.686 184.28C212.042 184.28 211.491 184.485 211.034 184.896C210.586 185.307 210.329 185.876 210.264 186.604H215.108ZM220.961 189.824L223.341 183.328H224.699L221.689 191H220.205L217.195 183.328H218.567L220.961 189.824ZM232.953 186.87C232.953 187.113 232.939 187.369 232.911 187.64H226.779C226.826 188.396 227.082 188.989 227.549 189.418C228.025 189.838 228.599 190.048 229.271 190.048C229.822 190.048 230.279 189.922 230.643 189.67C231.016 189.409 231.278 189.063 231.427 188.634H232.799C232.594 189.371 232.183 189.973 231.567 190.44C230.951 190.897 230.186 191.126 229.271 191.126C228.543 191.126 227.89 190.963 227.311 190.636C226.742 190.309 226.294 189.847 225.967 189.25C225.64 188.643 225.477 187.943 225.477 187.15C225.477 186.357 225.636 185.661 225.953 185.064C226.27 184.467 226.714 184.009 227.283 183.692C227.862 183.365 228.524 183.202 229.271 183.202C229.999 183.202 230.643 183.361 231.203 183.678C231.763 183.995 232.192 184.434 232.491 184.994C232.799 185.545 232.953 186.17 232.953 186.87ZM231.637 186.604C231.637 186.119 231.53 185.703 231.315 185.358C231.1 185.003 230.806 184.737 230.433 184.56C230.069 184.373 229.663 184.28 229.215 184.28C228.571 184.28 228.02 184.485 227.563 184.896C227.115 185.307 226.858 185.876 226.793 186.604H231.637ZM235.909 180.64V191H234.635V180.64H235.909ZM241.426 191.126C240.707 191.126 240.054 190.963 239.466 190.636C238.887 190.309 238.43 189.847 238.094 189.25C237.767 188.643 237.604 187.943 237.604 187.15C237.604 186.366 237.772 185.675 238.108 185.078C238.453 184.471 238.92 184.009 239.508 183.692C240.096 183.365 240.754 183.202 241.482 183.202C242.21 183.202 242.868 183.365 243.456 183.692C244.044 184.009 244.506 184.467 244.842 185.064C245.187 185.661 245.36 186.357 245.36 187.15C245.36 187.943 245.183 188.643 244.828 189.25C244.483 189.847 244.011 190.309 243.414 190.636C242.817 190.963 242.154 191.126 241.426 191.126ZM241.426 190.006C241.883 190.006 242.313 189.899 242.714 189.684C243.115 189.469 243.437 189.147 243.68 188.718C243.932 188.289 244.058 187.766 244.058 187.15C244.058 186.534 243.937 186.011 243.694 185.582C243.451 185.153 243.134 184.835 242.742 184.63C242.35 184.415 241.925 184.308 241.468 184.308C241.001 184.308 240.572 184.415 240.18 184.63C239.797 184.835 239.489 185.153 239.256 185.582C239.023 186.011 238.906 186.534 238.906 187.15C238.906 187.775 239.018 188.303 239.242 188.732C239.475 189.161 239.783 189.483 240.166 189.698C240.549 189.903 240.969 190.006 241.426 190.006ZM248.309 184.742C248.561 184.303 248.934 183.939 249.429 183.65C249.933 183.351 250.516 183.202 251.179 183.202C251.86 183.202 252.476 183.365 253.027 183.692C253.587 184.019 254.026 184.481 254.343 185.078C254.66 185.666 254.819 186.352 254.819 187.136C254.819 187.911 254.66 188.601 254.343 189.208C254.026 189.815 253.587 190.286 253.027 190.622C252.476 190.958 251.86 191.126 251.179 191.126C250.526 191.126 249.947 190.981 249.443 190.692C248.948 190.393 248.57 190.025 248.309 189.586V194.64H247.035V183.328H248.309V184.742ZM253.517 187.136C253.517 186.557 253.4 186.053 253.167 185.624C252.934 185.195 252.616 184.868 252.215 184.644C251.823 184.42 251.389 184.308 250.913 184.308C250.446 184.308 250.012 184.425 249.611 184.658C249.219 184.882 248.902 185.213 248.659 185.652C248.426 186.081 248.309 186.581 248.309 187.15C248.309 187.729 248.426 188.237 248.659 188.676C248.902 189.105 249.219 189.437 249.611 189.67C250.012 189.894 250.446 190.006 250.913 190.006C251.389 190.006 251.823 189.894 252.215 189.67C252.616 189.437 252.934 189.105 253.167 188.676C253.4 188.237 253.517 187.724 253.517 187.136ZM265.722 183.188C266.319 183.188 266.851 183.314 267.318 183.566C267.785 183.809 268.153 184.177 268.424 184.672C268.695 185.167 268.83 185.769 268.83 186.478V191H267.57V186.66C267.57 185.895 267.379 185.311 266.996 184.91C266.623 184.499 266.114 184.294 265.47 184.294C264.807 184.294 264.28 184.509 263.888 184.938C263.496 185.358 263.3 185.969 263.3 186.772V191H262.04V186.66C262.04 185.895 261.849 185.311 261.466 184.91C261.093 184.499 260.584 184.294 259.94 184.294C259.277 184.294 258.75 184.509 258.358 184.938C257.966 185.358 257.77 185.969 257.77 186.772V191H256.496V183.328H257.77V184.434C258.022 184.033 258.358 183.725 258.778 183.51C259.207 183.295 259.679 183.188 260.192 183.188C260.836 183.188 261.405 183.333 261.9 183.622C262.395 183.911 262.763 184.336 263.006 184.896C263.221 184.355 263.575 183.935 264.07 183.636C264.565 183.337 265.115 183.188 265.722 183.188ZM277.92 186.87C277.92 187.113 277.906 187.369 277.878 187.64H271.746C271.792 188.396 272.049 188.989 272.516 189.418C272.992 189.838 273.566 190.048 274.238 190.048C274.788 190.048 275.246 189.922 275.61 189.67C275.983 189.409 276.244 189.063 276.394 188.634H277.766C277.56 189.371 277.15 189.973 276.534 190.44C275.918 190.897 275.152 191.126 274.238 191.126C273.51 191.126 272.856 190.963 272.278 190.636C271.708 190.309 271.26 189.847 270.934 189.25C270.607 188.643 270.444 187.943 270.444 187.15C270.444 186.357 270.602 185.661 270.92 185.064C271.237 184.467 271.68 184.009 272.25 183.692C272.828 183.365 273.491 183.202 274.238 183.202C274.966 183.202 275.61 183.361 276.17 183.678C276.73 183.995 277.159 184.434 277.458 184.994C277.766 185.545 277.92 186.17 277.92 186.87ZM276.604 186.604C276.604 186.119 276.496 185.703 276.282 185.358C276.067 185.003 275.773 184.737 275.4 184.56C275.036 184.373 274.63 184.28 274.182 184.28C273.538 184.28 272.987 184.485 272.53 184.896C272.082 185.307 271.825 185.876 271.76 186.604H276.604ZM283.339 183.188C284.273 183.188 285.029 183.473 285.607 184.042C286.186 184.602 286.475 185.414 286.475 186.478V191H285.215V186.66C285.215 185.895 285.024 185.311 284.641 184.91C284.259 184.499 283.736 184.294 283.073 184.294C282.401 184.294 281.865 184.504 281.463 184.924C281.071 185.344 280.875 185.955 280.875 186.758V191H279.601V183.328H280.875V184.42C281.127 184.028 281.468 183.725 281.897 183.51C282.336 183.295 282.817 183.188 283.339 183.188ZM290.111 184.378V188.9C290.111 189.273 290.19 189.539 290.349 189.698C290.507 189.847 290.783 189.922 291.175 189.922H292.113V191H290.965C290.255 191 289.723 190.837 289.369 190.51C289.014 190.183 288.837 189.647 288.837 188.9V184.378H287.843V183.328H288.837V181.396H290.111V183.328H292.113V184.378H290.111ZM3.794 219.126C3.206 219.126 2.67867 219.028 2.212 218.832C1.74533 218.627 1.37667 218.347 1.106 217.992C0.835333 217.628 0.686 217.213 0.658 216.746H1.974C2.01133 217.129 2.18867 217.441 2.506 217.684C2.83267 217.927 3.25733 218.048 3.78 218.048C4.26533 218.048 4.648 217.941 4.928 217.726C5.208 217.511 5.348 217.241 5.348 216.914C5.348 216.578 5.19867 216.331 4.9 216.172C4.60133 216.004 4.13933 215.841 3.514 215.682C2.94467 215.533 2.478 215.383 2.114 215.234C1.75933 215.075 1.45133 214.847 1.19 214.548C0.938 214.24 0.812 213.839 0.812 213.344C0.812 212.952 0.928667 212.593 1.162 212.266C1.39533 211.939 1.72667 211.683 2.156 211.496C2.58533 211.3 3.07533 211.202 3.626 211.202C4.47533 211.202 5.16133 211.417 5.684 211.846C6.20667 212.275 6.48667 212.863 6.524 213.61H5.25C5.222 213.209 5.05867 212.887 4.76 212.644C4.47067 212.401 4.07867 212.28 3.584 212.28C3.12667 212.28 2.76267 212.378 2.492 212.574C2.22133 212.77 2.086 213.027 2.086 213.344C2.086 213.596 2.16533 213.806 2.324 213.974C2.492 214.133 2.69733 214.263 2.94 214.366C3.192 214.459 3.53733 214.567 3.976 214.688C4.52667 214.837 4.97467 214.987 5.32 215.136C5.66533 215.276 5.95933 215.491 6.202 215.78C6.454 216.069 6.58467 216.447 6.594 216.914C6.594 217.334 6.47733 217.712 6.244 218.048C6.01067 218.384 5.67933 218.65 5.25 218.846C4.83 219.033 4.34467 219.126 3.794 219.126ZM9.94645 212.378V216.9C9.94645 217.273 10.0258 217.539 10.1845 217.698C10.3431 217.847 10.6185 217.922 11.0105 217.922H11.9485V219H10.8005C10.0911 219 9.55912 218.837 9.20445 218.51C8.84979 218.183 8.67245 217.647 8.67245 216.9V212.378H7.67845V211.328H8.67245V209.396H9.94645V211.328H11.9485V212.378H9.94645ZM13.0161 215.136C13.0161 214.352 13.1747 213.666 13.4921 213.078C13.8094 212.481 14.2434 212.019 14.7941 211.692C15.3541 211.365 15.9747 211.202 16.6561 211.202C17.3281 211.202 17.9114 211.347 18.4061 211.636C18.9007 211.925 19.2694 212.289 19.5121 212.728V211.328H20.8001V219H19.5121V217.572C19.2601 218.02 18.8821 218.393 18.3781 218.692C17.8834 218.981 17.3047 219.126 16.6421 219.126C15.9607 219.126 15.3447 218.958 14.7941 218.622C14.2434 218.286 13.8094 217.815 13.4921 217.208C13.1747 216.601 13.0161 215.911 13.0161 215.136ZM19.5121 215.15C19.5121 214.571 19.3954 214.067 19.1621 213.638C18.9287 213.209 18.6114 212.882 18.2101 212.658C17.8181 212.425 17.3841 212.308 16.9081 212.308C16.4321 212.308 15.9981 212.42 15.6061 212.644C15.2141 212.868 14.9014 213.195 14.6681 213.624C14.4347 214.053 14.3181 214.557 14.3181 215.136C14.3181 215.724 14.4347 216.237 14.6681 216.676C14.9014 217.105 15.2141 217.437 15.6061 217.67C15.9981 217.894 16.4321 218.006 16.9081 218.006C17.3841 218.006 17.8181 217.894 18.2101 217.67C18.6114 217.437 18.9287 217.105 19.1621 216.676C19.3954 216.237 19.5121 215.729 19.5121 215.15ZM26.691 211.188C27.6243 211.188 28.3803 211.473 28.959 212.042C29.5377 212.602 29.827 213.414 29.827 214.478V219H28.567V214.66C28.567 213.895 28.3757 213.311 27.993 212.91C27.6103 212.499 27.0877 212.294 26.425 212.294C25.753 212.294 25.2163 212.504 24.815 212.924C24.423 213.344 24.227 213.955 24.227 214.758V219H22.953V211.328H24.227V212.42C24.479 212.028 24.8197 211.725 25.249 211.51C25.6877 211.295 26.1683 211.188 26.691 211.188ZM31.4321 215.136C31.4321 214.352 31.5907 213.666 31.9081 213.078C32.2254 212.481 32.6594 212.019 33.2101 211.692C33.7701 211.365 34.3954 211.202 35.0861 211.202C35.6834 211.202 36.2387 211.342 36.7521 211.622C37.2654 211.893 37.6574 212.252 37.9281 212.7V208.64H39.2161V219H37.9281V217.558C37.6761 218.015 37.3027 218.393 36.8081 218.692C36.3134 218.981 35.7347 219.126 35.0721 219.126C34.3907 219.126 33.7701 218.958 33.2101 218.622C32.6594 218.286 32.2254 217.815 31.9081 217.208C31.5907 216.601 31.4321 215.911 31.4321 215.136ZM37.9281 215.15C37.9281 214.571 37.8114 214.067 37.5781 213.638C37.3447 213.209 37.0274 212.882 36.6261 212.658C36.2341 212.425 35.8001 212.308 35.3241 212.308C34.8481 212.308 34.4141 212.42 34.0221 212.644C33.6301 212.868 33.3174 213.195 33.0841 213.624C32.8507 214.053 32.7341 214.557 32.7341 215.136C32.7341 215.724 32.8507 216.237 33.0841 216.676C33.3174 217.105 33.6301 217.437 34.0221 217.67C34.4141 217.894 34.8481 218.006 35.3241 218.006C35.8001 218.006 36.2341 217.894 36.6261 217.67C37.0274 217.437 37.3447 217.105 37.5781 216.676C37.8114 216.237 37.9281 215.729 37.9281 215.15ZM40.893 215.136C40.893 214.352 41.0517 213.666 41.369 213.078C41.6863 212.481 42.1203 212.019 42.671 211.692C43.231 211.365 43.8517 211.202 44.533 211.202C45.205 211.202 45.7883 211.347 46.283 211.636C46.7777 211.925 47.1463 212.289 47.389 212.728V211.328H48.677V219H47.389V217.572C47.137 218.02 46.759 218.393 46.255 218.692C45.7603 218.981 45.1817 219.126 44.519 219.126C43.8377 219.126 43.2217 218.958 42.671 218.622C42.1203 218.286 41.6863 217.815 41.369 217.208C41.0517 216.601 40.893 215.911 40.893 215.136ZM47.389 215.15C47.389 214.571 47.2723 214.067 47.039 213.638C46.8057 213.209 46.4883 212.882 46.087 212.658C45.695 212.425 45.261 212.308 44.785 212.308C44.309 212.308 43.875 212.42 43.483 212.644C43.091 212.868 42.7783 213.195 42.545 213.624C42.3117 214.053 42.195 214.557 42.195 215.136C42.195 215.724 42.3117 216.237 42.545 216.676C42.7783 217.105 43.091 217.437 43.483 217.67C43.875 217.894 44.309 218.006 44.785 218.006C45.261 218.006 45.695 217.894 46.087 217.67C46.4883 217.437 46.8057 217.105 47.039 216.676C47.2723 216.237 47.389 215.729 47.389 215.15ZM52.104 212.574C52.328 212.135 52.6453 211.795 53.056 211.552C53.476 211.309 53.9846 211.188 54.582 211.188V212.504H54.246C52.818 212.504 52.104 213.279 52.104 214.828V219H50.83V211.328H52.104V212.574ZM55.5766 215.136C55.5766 214.352 55.7353 213.666 56.0526 213.078C56.3699 212.481 56.8039 212.019 57.3546 211.692C57.9146 211.365 58.5399 211.202 59.2306 211.202C59.8279 211.202 60.3833 211.342 60.8966 211.622C61.4099 211.893 61.8019 212.252 62.0726 212.7V208.64H63.3606V219H62.0726V217.558C61.8206 218.015 61.4473 218.393 60.9526 218.692C60.4579 218.981 59.8793 219.126 59.2166 219.126C58.5353 219.126 57.9146 218.958 57.3546 218.622C56.8039 218.286 56.3699 217.815 56.0526 217.208C55.7353 216.601 55.5766 215.911 55.5766 215.136ZM62.0726 215.15C62.0726 214.571 61.9559 214.067 61.7226 213.638C61.4893 213.209 61.1719 212.882 60.7706 212.658C60.3786 212.425 59.9446 212.308 59.4686 212.308C58.9926 212.308 58.5586 212.42 58.1666 212.644C57.7746 212.868 57.4619 213.195 57.2286 213.624C56.9953 214.053 56.8786 214.557 56.8786 215.136C56.8786 215.724 56.9953 216.237 57.2286 216.676C57.4619 217.105 57.7746 217.437 58.1666 217.67C58.5586 217.894 58.9926 218.006 59.4686 218.006C59.9446 218.006 60.3786 217.894 60.7706 217.67C61.1719 217.437 61.4893 217.105 61.7226 216.676C61.9559 216.237 62.0726 215.729 62.0726 215.15ZM68.2295 219.126C67.6415 219.126 67.1142 219.028 66.6475 218.832C66.1809 218.627 65.8122 218.347 65.5415 217.992C65.2709 217.628 65.1215 217.213 65.0935 216.746H66.4095C66.4469 217.129 66.6242 217.441 66.9415 217.684C67.2682 217.927 67.6929 218.048 68.2155 218.048C68.7009 218.048 69.0835 217.941 69.3635 217.726C69.6435 217.511 69.7835 217.241 69.7835 216.914C69.7835 216.578 69.6342 216.331 69.3355 216.172C69.0369 216.004 68.5749 215.841 67.9495 215.682C67.3802 215.533 66.9135 215.383 66.5495 215.234C66.1949 215.075 65.8869 214.847 65.6255 214.548C65.3735 214.24 65.2475 213.839 65.2475 213.344C65.2475 212.952 65.3642 212.593 65.5975 212.266C65.8309 211.939 66.1622 211.683 66.5915 211.496C67.0209 211.3 67.5109 211.202 68.0615 211.202C68.9109 211.202 69.5969 211.417 70.1195 211.846C70.6422 212.275 70.9222 212.863 70.9595 213.61H69.6855C69.6575 213.209 69.4942 212.887 69.1955 212.644C68.9062 212.401 68.5142 212.28 68.0195 212.28C67.5622 212.28 67.1982 212.378 66.9275 212.574C66.6569 212.77 66.5215 213.027 66.5215 213.344C66.5215 213.596 66.6009 213.806 66.7595 213.974C66.9275 214.133 67.1329 214.263 67.3755 214.366C67.6275 214.459 67.9729 214.567 68.4115 214.688C68.9622 214.837 69.4102 214.987 69.7555 215.136C70.1009 215.276 70.3949 215.491 70.6375 215.78C70.8895 216.069 71.0202 216.447 71.0295 216.914C71.0295 217.334 70.9129 217.712 70.6795 218.048C70.4462 218.384 70.1149 218.65 69.6855 218.846C69.2655 219.033 68.7802 219.126 68.2295 219.126ZM73.234 219.084C72.9913 219.084 72.786 219 72.618 218.832C72.45 218.664 72.366 218.459 72.366 218.216C72.366 217.973 72.45 217.768 72.618 217.6C72.786 217.432 72.9913 217.348 73.234 217.348C73.4673 217.348 73.6633 217.432 73.822 217.6C73.99 217.768 74.074 217.973 74.074 218.216C74.074 218.459 73.99 218.664 73.822 218.832C73.6633 219 73.4673 219.084 73.234 219.084Z" fill="black"/>
<path d="M4.968 107.248V117.616C4.968 118.752 5.264 119.624 5.856 120.232C6.448 120.824 7.28 121.12 8.352 121.12C9.44 121.12 10.28 120.824 10.872 120.232C11.464 119.624 11.76 118.752 11.76 117.616V107.248H15.144V117.592C15.144 119.016 14.832 120.224 14.208 121.216C13.6 122.192 12.776 122.928 11.736 123.424C10.712 123.92 9.568 124.168 8.304 124.168C7.056 124.168 5.92 123.92 4.896 123.424C3.888 122.928 3.088 122.192 2.496 121.216C1.904 120.224 1.608 119.016 1.608 117.592V107.248H4.968ZM21.7504 107.248V124H18.3904V107.248H21.7504ZM34.0701 101.272L27.5901 128.344H24.3021L30.7821 101.272H34.0701ZM40.0539 107.248V117.616C40.0539 118.752 40.3499 119.624 40.9419 120.232C41.5339 120.824 42.3659 121.12 43.4379 121.12C44.5259 121.12 45.3659 120.824 45.9579 120.232C46.5499 119.624 46.8459 118.752 46.8459 117.616V107.248H50.2299V117.592C50.2299 119.016 49.9179 120.224 49.2939 121.216C48.6859 122.192 47.8619 122.928 46.8219 123.424C45.7979 123.92 44.6539 124.168 43.3899 124.168C42.1419 124.168 41.0059 123.92 39.9819 123.424C38.9739 122.928 38.1739 122.192 37.5819 121.216C36.9899 120.224 36.6939 119.016 36.6939 117.592V107.248H40.0539ZM63.5083 124L59.8843 118.36L56.5963 124H52.8043L58.0843 115.552L52.7323 107.248H56.5963L60.2203 112.864L63.4843 107.248H67.2763L62.0203 115.672L67.3723 124H63.5083ZM81.5042 107.248C83.2642 107.248 84.8082 107.592 86.1362 108.28C87.4802 108.968 88.5122 109.952 89.2322 111.232C89.9682 112.496 90.3362 113.968 90.3362 115.648C90.3362 117.328 89.9682 118.8 89.2322 120.064C88.5122 121.312 87.4802 122.28 86.1362 122.968C84.8082 123.656 83.2642 124 81.5042 124H75.6482V107.248H81.5042ZM81.3842 121.144C83.1442 121.144 84.5042 120.664 85.4642 119.704C86.4242 118.744 86.9042 117.392 86.9042 115.648C86.9042 113.904 86.4242 112.544 85.4642 111.568C84.5042 110.576 83.1442 110.08 81.3842 110.08H79.0082V121.144H81.3842ZM96.2113 109.96V114.16H101.851V116.824H96.2113V121.264H102.571V124H92.8513V107.224H102.571V109.96H96.2113ZM111.409 124.168C110.241 124.168 109.185 123.968 108.241 123.568C107.313 123.168 106.577 122.592 106.033 121.84C105.489 121.088 105.209 120.2 105.193 119.176H108.793C108.841 119.864 109.081 120.408 109.513 120.808C109.961 121.208 110.569 121.408 111.337 121.408C112.121 121.408 112.737 121.224 113.185 120.856C113.633 120.472 113.857 119.976 113.857 119.368C113.857 118.872 113.705 118.464 113.401 118.144C113.097 117.824 112.713 117.576 112.249 117.4C111.801 117.208 111.177 117 110.377 116.776C109.289 116.456 108.401 116.144 107.713 115.84C107.041 115.52 106.457 115.048 105.961 114.424C105.481 113.784 105.241 112.936 105.241 111.88C105.241 110.888 105.489 110.024 105.985 109.288C106.481 108.552 107.177 107.992 108.073 107.608C108.969 107.208 109.993 107.008 111.145 107.008C112.873 107.008 114.273 107.432 115.345 108.28C116.433 109.112 117.033 110.28 117.145 111.784H113.449C113.417 111.208 113.169 110.736 112.705 110.368C112.257 109.984 111.657 109.792 110.905 109.792C110.249 109.792 109.721 109.96 109.321 110.296C108.937 110.632 108.745 111.12 108.745 111.76C108.745 112.208 108.889 112.584 109.177 112.888C109.481 113.176 109.849 113.416 110.281 113.608C110.729 113.784 111.353 113.992 112.153 114.232C113.241 114.552 114.129 114.872 114.817 115.192C115.505 115.512 116.097 115.992 116.593 116.632C117.089 117.272 117.337 118.112 117.337 119.152C117.337 120.048 117.105 120.88 116.641 121.648C116.177 122.416 115.497 123.032 114.601 123.496C113.705 123.944 112.641 124.168 111.409 124.168ZM123.61 107.248V124H120.25V107.248H123.61ZM138.593 112.288C138.209 111.584 137.681 111.048 137.009 110.68C136.337 110.312 135.553 110.128 134.657 110.128C133.665 110.128 132.785 110.352 132.017 110.8C131.249 111.248 130.649 111.888 130.217 112.72C129.785 113.552 129.569 114.512 129.569 115.6C129.569 116.72 129.785 117.696 130.217 118.528C130.665 119.36 131.281 120 132.065 120.448C132.849 120.896 133.761 121.12 134.801 121.12C136.081 121.12 137.129 120.784 137.945 120.112C138.761 119.424 139.297 118.472 139.553 117.256H133.793V114.688H142.865V117.616C142.641 118.784 142.161 119.864 141.425 120.856C140.689 121.848 139.737 122.648 138.569 123.256C137.417 123.848 136.121 124.144 134.681 124.144C133.065 124.144 131.601 123.784 130.289 123.064C128.993 122.328 127.969 121.312 127.217 120.016C126.481 118.72 126.113 117.248 126.113 115.6C126.113 113.952 126.481 112.48 127.217 111.184C127.969 109.872 128.993 108.856 130.289 108.136C131.601 107.4 133.057 107.032 134.657 107.032C136.545 107.032 138.185 107.496 139.577 108.424C140.969 109.336 141.929 110.624 142.457 112.288H138.593ZM159.679 124H156.319L148.711 112.504V124H145.351V107.224H148.711L156.319 118.744V107.224H159.679V124Z" fill="black"/>
<g clip-path="url(#clip0_5_55)">
<path d="M30.5 24L39.5933 36H21.4067L30.5 24Z" fill="#FFD645"/>
<path d="M42 17L54.9904 36.5H29.0096L42 17Z" fill="#FFD645"/>
<path d="M66.0078 47.9453H1.99219C0.891969 47.9453 0 48.8373 0 49.9375V66.0078C0 67.108 0.891969 68 1.99219 68H66.0078C67.108 68 68 67.108 68 66.0078V49.9375C68 48.8373 67.108 47.9453 66.0078 47.9453ZM64.0156 64.0156H59.8984V57.9062C59.8984 56.806 59.0065 55.9141 57.9062 55.9141C56.806 55.9141 55.9141 56.806 55.9141 57.9062V64.0156H51.9297V61.8906C51.9297 60.7904 51.0377 59.8984 49.9375 59.8984C48.8373 59.8984 47.9453 60.7904 47.9453 61.8906V64.0156H43.9609V57.9062C43.9609 56.806 43.069 55.9141 41.9688 55.9141C40.8685 55.9141 39.9766 56.806 39.9766 57.9062V64.0156H35.9922V61.8906C35.9922 60.7904 35.1002 59.8984 34 59.8984C32.8998 59.8984 32.0078 60.7904 32.0078 61.8906V64.0156H28.0234V57.9062C28.0234 56.806 27.1315 55.9141 26.0312 55.9141C24.931 55.9141 24.0391 56.806 24.0391 57.9062V64.0156H20.0547V61.8906C20.0547 60.7904 19.1627 59.8984 18.0625 59.8984C16.9623 59.8984 16.0703 60.7904 16.0703 61.8906V64.0156H12.0859V57.9062C12.0859 56.806 11.194 55.9141 10.0938 55.9141C8.99353 55.9141 8.10156 56.806 8.10156 57.9062V64.0156H3.98438V51.9297H64.0156V64.0156Z" fill="black"/>
<path d="M66.0078 12.0859C67.108 12.0859 68 11.194 68 10.0938V1.99219C68 0.891969 67.108 0 66.0078 0H57.9062C56.806 0 55.9141 0.891969 55.9141 1.99219V3.98438H12.0859V1.99219C12.0859 0.891969 11.194 0 10.0938 0H1.99219C0.891969 0 0 0.891969 0 1.99219V10.0938C0 11.194 0.891969 12.0859 1.99219 12.0859H3.98438V32.0078H1.99219C0.891969 32.0078 0 32.8998 0 34V41.9688C0 43.069 0.891969 43.9609 1.99219 43.9609H10.0938C11.194 43.9609 12.0859 43.069 12.0859 41.9688V39.9766C13.6386 39.9766 54.4444 39.9766 55.9141 39.9766V41.9688C55.9141 43.069 56.806 43.9609 57.9062 43.9609H66.0078C67.108 43.9609 68 43.069 68 41.9688V34C68 32.8998 67.108 32.0078 66.0078 32.0078H64.0156V12.0859H66.0078ZM3.98438 3.98438H8.10156V8.10156H3.98438V3.98438ZM8.10156 39.9766H3.98438V35.9922H8.10156V39.9766ZM22.0469 35.9922L30.0156 25.3672L37.9844 35.9922H22.0469ZM42.9648 35.9922L35.9707 26.6668L41.9688 17.6696L54.1838 35.9922H42.9648ZM56.6269 32.4739L43.6264 12.973C42.8403 11.794 41.1003 11.7892 40.3111 12.973L33.4355 23.2864L31.6094 20.8516C30.8124 19.7889 29.2173 19.7911 28.4219 20.8516L17.0664 35.9922H12.0859V34C12.0859 32.8998 11.194 32.0078 10.0938 32.0078H7.96875V12.0859H10.0938C11.194 12.0859 12.0859 11.194 12.0859 10.0938V7.96875H55.9141V10.0938C55.9141 11.194 56.806 12.0859 57.9062 12.0859H60.0312V32.0078H57.9062C57.419 32.0078 56.9731 32.1833 56.6269 32.4739ZM64.0156 39.9766H59.8984V35.9922H64.0156V39.9766ZM59.8984 8.10156V3.98438H64.0156V8.10156H59.8984Z" fill="black"/>
<path d="M18.0625 12.0859C14.767 12.0859 12.0859 14.767 12.0859 18.0625C12.0859 21.358 14.767 24.0391 18.0625 24.0391C21.358 24.0391 24.0391 21.358 24.0391 18.0625C24.0391 14.767 21.358 12.0859 18.0625 12.0859ZM18.0625 20.0547C16.964 20.0547 16.0703 19.161 16.0703 18.0625C16.0703 16.964 16.964 16.0703 18.0625 16.0703C19.161 16.0703 20.0547 16.964 20.0547 18.0625C20.0547 19.161 19.161 20.0547 18.0625 20.0547Z" fill="black"/>
</g>
<defs>
<clipPath id="clip0_5_55">
<rect width="68" height="68" fill="white"/>
</clipPath>
</defs>
</svg>
