<svg width="103" height="18" viewBox="0 0 103 18" fill="none" xmlns="http://www.w3.org/2000/svg">
<g id="&#208;&#158;&#209;&#134;&#208;&#181;&#208;&#189;&#208;&#186;&#208;&#176;">
<path id="Star 6" d="M94 0L96.0206 6.21885H102.56L97.2694 10.0623L99.2901 16.2812L94 12.4377L88.7099 16.2812L90.7306 10.0623L85.4405 6.21885H91.9794L94 0Z" fill="#FFD95C"/>
<path id="Star 5" d="M73 0L75.0206 6.21885H81.5595L76.2694 10.0623L78.2901 16.2812L73 12.4377L67.7099 16.2812L69.7306 10.0623L64.4405 6.21885H70.9794L73 0Z" fill="#FFD95C"/>
<path id="Star 4" d="M51 0L53.0206 6.21885H59.5595L54.2694 10.0623L56.2901 16.2812L51 12.4377L45.7099 16.2812L47.7306 10.0623L42.4405 6.21885H48.9794L51 0Z" fill="#FFD95C"/>
<path id="Star 3" d="M30 0L32.0206 6.21885H38.5595L33.2694 10.0623L35.2901 16.2812L30 12.4377L24.7099 16.2812L26.7306 10.0623L21.4405 6.21885H27.9794L30 0Z" fill="#FFD95C"/>
<path id="Star 2" d="M9 0L11.0206 6.21885H17.5595L12.2694 10.0623L14.2901 16.2812L9 12.4377L3.70993 16.2812L5.73056 10.0623L0.440492 6.21885H6.97937L9 0Z" fill="#FFD95C"/>
</g>
</svg>
