<svg width="48" height="48" viewBox="0 0 48 48" fill="none" xmlns="http://www.w3.org/2000/svg">
<g id="2769663821556105731 1" clip-path="url(#clip0_7556_312)">
<path id="Vector" fill-rule="evenodd" clip-rule="evenodd" d="M0 24C0 37.2548 10.7452 48 24 48C37.2548 48 48 37.2548 48 24C48 10.7452 37.2548 0 24 0C10.7452 0 0 10.7452 0 24ZM39.0621 23.0815C39.059 30.9483 32.6595 37.3493 24.7911 37.3525H24.7852C22.3967 37.3517 20.0498 36.7524 17.9653 35.6155L10.4 37.6L12.4246 30.2048C11.1757 28.0405 10.5186 25.5855 10.5196 23.0702C10.5228 15.2017 16.9248 8.8 24.7909 8.8C28.6086 8.80165 32.1918 10.2879 34.8862 12.9854C37.5806 15.6828 39.0637 19.2683 39.0621 23.0815Z" fill="white"/>
<path id="Vector_2" fill-rule="evenodd" clip-rule="evenodd" d="M13.8265 34.2092L18.3159 33.0315L18.749 33.2886C20.5702 34.3693 22.6578 34.9411 24.7863 34.942H24.7911C31.3289 34.942 36.6499 29.6208 36.6526 23.0803C36.6538 19.9108 35.4212 16.9307 33.1817 14.6886C30.9422 12.4465 27.964 11.2111 24.7958 11.21C18.2529 11.21 12.9318 16.5307 12.9292 23.0707C12.9283 25.312 13.5554 27.4947 14.7428 29.3832L15.0248 29.832L13.8265 34.2092ZM31.4924 26.1537C31.7411 26.2739 31.9091 26.355 31.9808 26.4747C32.0699 26.6234 32.0699 27.3374 31.7729 28.1705C31.4756 29.0034 30.0511 29.7636 29.3659 29.8659C28.7516 29.9578 27.9742 29.9961 27.12 29.7246C26.602 29.5603 25.9379 29.3409 25.0871 28.9735C21.7442 27.53 19.485 24.29 19.0581 23.6776C19.0282 23.6347 19.0072 23.6047 18.9956 23.5892L18.9927 23.5853C18.804 23.3335 17.5395 21.6464 17.5395 19.9004C17.5395 18.2579 18.3464 17.3969 18.7178 17.0006C18.7432 16.9735 18.7666 16.9485 18.7876 16.9256C19.1144 16.5686 19.5008 16.4794 19.7385 16.4794C19.9762 16.4794 20.2141 16.4816 20.4219 16.492C20.4475 16.4933 20.4742 16.4931 20.5018 16.493C20.7096 16.4917 20.9686 16.4902 21.2242 17.1041C21.3225 17.3404 21.4664 17.6906 21.6181 18.0599C21.9249 18.807 22.264 19.6324 22.3236 19.7518C22.4128 19.9303 22.4722 20.1385 22.3533 20.3766C22.3355 20.4123 22.319 20.446 22.3032 20.4781C22.214 20.6604 22.1483 20.7945 21.9968 20.9714C21.9372 21.041 21.8756 21.116 21.814 21.1909C21.6914 21.3403 21.5687 21.4897 21.4619 21.5961C21.2834 21.7739 21.0975 21.9669 21.3055 22.3239C21.5135 22.6809 22.2292 23.8485 23.2893 24.7941C24.4288 25.8105 25.4192 26.2401 25.9212 26.4579C26.0192 26.5004 26.0986 26.5348 26.1569 26.564C26.5133 26.7425 26.7214 26.7127 26.9294 26.4747C27.1374 26.2368 27.8208 25.4335 28.0585 25.0765C28.2961 24.7197 28.534 24.7791 28.8608 24.8981C29.1877 25.0172 30.9408 25.8797 31.2974 26.0582C31.367 26.0931 31.4321 26.1245 31.4924 26.1537Z" fill="white"/>
</g>
<defs>
<clipPath id="clip0_7556_312">
<rect width="48" height="48" fill="white"/>
</clipPath>
</defs>
</svg>
