<svg width="648" height="953" viewBox="0 0 648 953" fill="none" xmlns="http://www.w3.org/2000/svg">
<path d="M326.342 0.00401467V0.506124C290.393 78.1001 236.906 145.837 172.165 207.249L247.025 199.34L145.125 329.952L194.363 314.072L127.633 424.285L160.438 444.054L30.9421 629.145L102.577 629.523L0 797.416L126.146 781.096L149.962 845.555L281.815 794.777L259.302 952.189H364.363L351.4 815.179L427.189 848.129L447.406 798.354L535.291 840.471L647.235 798.796L573.677 670.067L548.994 665.484L562.45 700.009L578.017 739.987L538.448 724.361L437.419 684.377V756.181L409.325 738.921L271.642 654.566L228.784 697.246L193.002 732.895L197.279 682.242L201.496 632.724L237.592 635.858L255.886 617.597L266.187 607.366L278.527 614.897L400.333 689.523V629.459L425.637 639.441L512.4 673.769L502.294 647.848L490.075 616.404L522.887 622.489L613.123 639.25L544.594 561.041L497.708 589.226L484.435 597.195L474.264 585.398L445.923 552.385L446.356 554.829L409.827 561.296L397.979 492.381L386.567 425.976L430.229 476.88L492.125 548.932L579.264 496.653C530.303 457.402 500.857 428.627 480.712 398.613L482.325 424.032L486.235 486.293L449.023 436.584L380.614 345.327L336.456 439.348L308.981 497.844L301.354 433.509L294.408 375.58L327.217 371.627L360.21 301.392L373.296 273.525L391.713 298.068L441.329 364.218L439.84 341.061L438.042 312.38L464.775 322.294L509.979 339.053L458.131 268.444L347.304 210.45L329.565 251.057L310.402 295.116L295.081 249.548L280.259 205.614L313.938 194.005L321.317 177.058L329.256 158.731L346.808 167.956L444.798 219.231L477.479 208.06C391.307 139.151 349.213 69.7069 326.338 0L326.342 0.00401467Z" fill="#DCD4AE" fill-opacity="0.5"/>
</svg>
