<svg width="153" height="34" viewBox="0 0 153 34" fill="none" xmlns="http://www.w3.org/2000/svg">
<g clip-path="url(#clip0_225_2798)">
<mask id="mask0_225_2798" style="mask-type:luminance" maskUnits="userSpaceOnUse" x="0" y="13" width="153" height="21">
<path d="M0 13.1855H153V34.0005H0V13.1855Z" fill="white"/>
</mask>
<g mask="url(#mask0_225_2798)">
<path fill-rule="evenodd" clip-rule="evenodd" d="M12.1365 13.3035H1.94159L0 33.3416H15.8648L16.3001 29.3769H10.6008L12.1365 13.3035ZM40.4351 23.2809C41.0939 15.9171 37.3024 13 31.0507 13C29.8354 13 28.62 13 27.4058 13C21.5736 13 17.3268 16.0738 16.4687 22.79C15.6276 29.4481 18.9532 33.598 25.481 33.598C26.5952 33.598 27.7093 33.598 28.8235 33.598C34.8664 33.598 39.8648 31.0217 40.4351 23.2809ZM25.9796 27.3672C25.8594 28.4937 26.377 29.4723 27.6693 29.4723C28.95 29.4723 30.0557 28.8509 30.0978 27.3738C30.3487 24.5795 30.5985 21.784 30.8483 18.9897C30.9569 17.8523 30.1843 17.1181 29.0606 17.1181C27.7884 17.1181 26.9557 17.9049 26.865 18.8418L25.9796 27.3672ZM119.759 13.1983H105.819L103.827 33.3416H113.46L114.976 17.2561H117.163C118.101 17.2561 118.944 17.8676 118.808 18.9229L117.475 33.3416H127.152L128.421 20.7189C129.15 15.2256 125.67 13.1983 119.759 13.1983ZM152.982 13.3035H141.775C134.738 13.3035 130.517 15.2979 129.708 21.3041C129.544 22.5325 129.404 24.0458 129.358 25.2742C129.153 30.7916 131.411 33.3416 137.59 33.3416H151.295L152.51 21.5134H143.056L142.364 28.8487H140.059C138.734 28.8487 138.514 27.8735 138.617 26.804C138.872 24.3395 139.126 21.8728 139.384 19.4061C139.477 17.9892 140.236 17.2671 141.461 17.2671H152.693L152.982 13.3035ZM103.563 13.3035H93.3693L91.3782 33.3416H101.623L103.563 13.3035ZM92.583 13.3035H83.4537L77.9683 19.4795L78.5755 13.3035H68.3795L66.3883 33.3416H76.6602L77.2336 26.5694L81.0652 33.3416H90.7267L84.5162 22.2662L92.583 13.3035ZM57.0419 13.1983H43.1008L41.1086 33.3416H50.7417L52.2586 17.2561H54.4447C55.3839 17.2561 56.2261 17.8676 56.0901 18.9229L54.7556 33.3416H64.4341L65.7032 20.7189C66.4315 15.2256 62.9521 13.1983 57.0419 13.1983Z" fill="black"/>
</g>
<path fill-rule="evenodd" clip-rule="evenodd" d="M109.256 -0.0175781L94.5379 4.02707L93.7031 12.318L108.419 8.48374L109.256 -0.0175781Z" fill="#24378C"/>
</g>
<defs>
<clipPath id="clip0_225_2798">
<rect width="153" height="34" fill="white"/>
</clipPath>
</defs>
</svg>
