<svg width="1612" height="975" viewBox="0 0 1612 975" fill="none" xmlns="http://www.w3.org/2000/svg">
<path d="M312.889 1C272.389 69.3333 165.589 233.4 62.3888 343C-40.8112 452.6 9.05544 513 46.8888 529.5C671.722 459.833 1850.69 423.1 1567.89 833.5C1214.39 1346.5 1039.39 206 651.389 69.5C263.389 -67 446.389 385 312.889 704.5C179.389 1024 932.889 944 1096.39 970.5C1259.89 997 1438.39 852.5 1225.39 666C1012.39 479.5 1354.89 172 1396.39 119C1429.23 77.0619 1348.68 23.8403 1302.89 1.7195M1302.89 1.7195C1302.38 1.47588 1301.88 1.23602 1301.39 1L1302.89 1.7195Z" stroke="#ADA580" stroke-width="2"/>
</svg>
