<svg width="98" height="98" viewBox="0 0 98 98" fill="none" xmlns="http://www.w3.org/2000/svg">
<path d="M52.6675 50.6276C54.3683 48.9268 54.3683 46.1692 52.6675 44.4683C50.9666 42.7675 48.209 42.7675 46.5082 44.4683C44.8073 46.1692 44.8073 48.9268 46.5082 50.6276C48.209 52.3284 50.9666 52.3285 52.6675 50.6276Z" fill="#F83718"/>
<path fill-rule="evenodd" clip-rule="evenodd" d="M57.1037 84.8222H42.0683C41.8201 84.8191 41.5829 84.7191 41.4074 84.5436C41.2318 84.368 41.1319 84.1308 41.1288 83.8826V75.1863C39.3654 74.6436 37.6584 73.9322 36.0314 73.0622L29.8707 79.2205C29.7836 79.3078 29.6802 79.3771 29.5663 79.4243C29.4524 79.4716 29.3303 79.4959 29.207 79.4959C29.0837 79.4959 28.9617 79.4716 28.8478 79.4243C28.7339 79.3771 28.6305 79.3078 28.5434 79.2205L17.9109 68.588C17.738 68.4104 17.6412 68.1722 17.6412 67.9243C17.6412 67.6765 17.738 67.4383 17.9109 67.2607L24.0597 61.1071C23.1878 59.4782 22.4757 57.7687 21.9332 56.0026H13.244C12.9917 56.0026 12.7497 55.9023 12.5712 55.7239C12.3928 55.5455 12.2925 55.3035 12.2925 55.0511V40.0134C12.2957 39.7631 12.3973 39.5241 12.5754 39.3483C12.7534 39.1724 12.9937 39.0738 13.244 39.0738H21.9427C22.4859 37.3106 23.1972 35.6036 24.0668 33.9764L17.9061 27.8157C17.819 27.7285 17.7501 27.625 17.7031 27.5111C17.6562 27.3973 17.6322 27.2752 17.6326 27.152C17.6336 26.9036 17.7318 26.6655 17.9061 26.4884L28.5387 15.8559C28.7163 15.683 28.9544 15.5862 29.2023 15.5862C29.4502 15.5862 29.6883 15.683 29.8659 15.8559L36.0266 22.0166C37.6538 21.1463 39.3608 20.4342 41.124 19.8901V11.1938C41.124 10.9435 41.2226 10.7032 41.3985 10.5251C41.5744 10.347 41.8133 10.2454 42.0636 10.2423H57.1014C57.3517 10.2454 57.5906 10.347 57.7664 10.5251C57.9423 10.7032 58.0409 10.9435 58.0409 11.1938V19.8806C59.8069 20.4243 61.5164 21.1372 63.1455 22.0094L69.299 15.8559C69.3859 15.7683 69.4893 15.6988 69.6032 15.6513C69.7171 15.6039 69.8393 15.5794 69.9627 15.5794C70.0861 15.5794 70.2082 15.6039 70.3221 15.6513C70.436 15.6988 70.5394 15.7683 70.6263 15.8559L81.2589 26.4861C81.3463 26.5733 81.4155 26.6769 81.4628 26.791C81.5101 26.9051 81.5345 27.0274 81.5345 27.1509C81.5345 27.2744 81.5101 27.3967 81.4628 27.5107C81.4155 27.6248 81.3463 27.7284 81.2589 27.8157L75.0981 33.974C75.9679 35.6014 76.68 37.3083 77.2246 39.0714H85.9209C86.0452 39.0714 86.1683 39.0961 86.283 39.1441C86.3976 39.1921 86.5015 39.2624 86.5888 39.3509C86.676 39.4395 86.7447 39.5445 86.791 39.6599C86.8372 39.7752 86.86 39.8986 86.8581 40.0229V55.0654C86.8584 55.1887 86.8344 55.3108 86.7875 55.4248C86.7405 55.5387 86.6715 55.6424 86.5845 55.7296C86.4974 55.8169 86.394 55.8862 86.2802 55.9334C86.1663 55.9807 86.0442 56.005 85.9209 56.005H77.2341C76.6906 57.7715 75.9785 59.4817 75.1076 61.1119L81.2589 67.2631C81.3462 67.3501 81.4155 67.4536 81.4627 67.5674C81.51 67.6813 81.5343 67.8034 81.5343 67.9267C81.5343 68.05 81.51 68.1721 81.4627 68.286C81.4155 68.3998 81.3462 68.5033 81.2589 68.5904L70.6263 79.2229C70.4487 79.3958 70.2106 79.4925 69.9627 79.4925C69.7148 79.4925 69.4767 79.3958 69.299 79.2229L63.1479 73.0693C61.5184 73.9424 59.808 74.6553 58.0409 75.1982V83.885C58.0409 84.1373 57.9407 84.3794 57.7623 84.5578C57.5838 84.7363 57.3418 84.8364 57.0894 84.8364L57.1037 84.8222ZM43.0079 82.9431H56.1713V74.4941C56.1734 74.2899 56.2411 74.0917 56.3645 73.929C56.4878 73.7662 56.6603 73.6474 56.8563 73.5902C58.9499 73.0021 60.9644 72.1619 62.8553 71.088C63.0342 70.9864 63.2415 70.9465 63.4452 70.9745C63.649 71.0024 63.8378 71.0966 63.9827 71.2425L69.9698 77.2296L79.275 67.9243L73.288 61.9373C73.1425 61.7921 73.0487 61.603 73.0212 61.3993C72.9937 61.1955 73.0339 60.9884 73.1357 60.8098C74.2089 58.9188 75.0485 56.9044 75.6358 54.8109C75.6931 54.6144 75.8121 54.4417 75.9754 54.3182C76.1386 54.1948 76.3374 54.1274 76.542 54.1259H84.991V40.9672H76.5301C76.3258 40.9651 76.1277 40.8974 75.9649 40.774C75.8021 40.6507 75.6834 40.4783 75.6262 40.2822C75.0385 38.1903 74.199 36.1775 73.1262 34.288C73.0276 34.1087 72.9894 33.9025 73.0173 33.6999C73.0451 33.4972 73.1376 33.3089 73.2809 33.1629L79.275 27.1687L69.9674 17.8635L63.978 23.8505C63.8318 23.9943 63.6432 24.0871 63.44 24.115C63.2368 24.1428 63.0301 24.1043 62.8506 24.0051C60.9594 22.9316 58.945 22.0913 56.8516 21.5028C56.6543 21.4477 56.4805 21.3295 56.3568 21.1662C56.2331 21.003 56.1663 20.8037 56.1666 20.5989V12.1476H43.0079V20.606C43.0064 20.8106 42.9389 21.0094 42.8155 21.1726C42.6921 21.3359 42.5193 21.455 42.3229 21.5123C40.2322 22.1011 38.2203 22.9405 36.3311 24.0122C36.1516 24.1123 35.9445 24.1515 35.7409 24.1241C35.5372 24.0966 35.3479 24.004 35.2012 23.86L29.207 17.8635L19.9018 27.1687L25.8984 33.1629C26.0422 33.309 26.135 33.4978 26.1628 33.701C26.1907 33.9041 26.1521 34.1108 26.0529 34.2903C24.98 36.1793 24.1399 38.1912 23.5507 40.2822C23.4956 40.4794 23.3773 40.6532 23.2141 40.7769C23.0508 40.9007 22.8516 40.9675 22.6468 40.9672H14.1883V54.1259H22.6325C22.8373 54.1256 23.0366 54.1924 23.1998 54.3161C23.363 54.4398 23.4813 54.6136 23.5364 54.8109C24.1249 56.9036 24.9652 58.9171 26.0387 60.8074C26.1388 60.9869 26.178 61.1941 26.1506 61.3977C26.1231 61.6014 26.0304 61.7906 25.8864 61.9373L19.8994 67.9243L29.2023 77.2296L35.1965 71.2354C35.3427 71.0916 35.5314 70.9988 35.7345 70.9709C35.9377 70.9431 36.1445 70.9816 36.324 71.0808C38.214 72.1526 40.2266 72.992 42.3181 73.5808C42.5142 73.6379 42.6867 73.7567 42.81 73.9194C42.9334 74.0822 43.0011 74.2804 43.0031 74.4846V82.9431H43.0079Z" fill="#F83718"/>
<path fill-rule="evenodd" clip-rule="evenodd" d="M84.3389 18.4342C83.4095 18.4347 82.501 18.1595 81.7281 17.6435C80.9552 17.1275 80.3527 16.3937 79.9968 15.5352C79.641 14.6767 79.5477 13.732 79.7289 12.8205C79.9101 11.909 80.3576 11.0717 81.0147 10.4145C81.6719 9.75739 82.5091 9.30992 83.4206 9.12873C84.3322 8.94754 85.2769 9.04076 86.1354 9.39662C86.9939 9.75248 87.7275 10.355 88.2435 11.1279C88.7596 11.9008 89.0348 12.8094 89.0344 13.7388C89.0325 14.9835 88.5372 16.1767 87.657 17.0568C86.7769 17.937 85.5836 18.4323 84.3389 18.4342ZM84.3389 16.7121C84.9275 16.7121 85.5029 16.5375 85.9923 16.2104C86.4817 15.8833 86.8631 15.4185 87.0883 14.8746C87.3134 14.3307 87.3723 13.7323 87.2572 13.155C87.1422 12.5777 86.8585 12.0475 86.4421 11.6314C86.0258 11.2154 85.4954 10.9322 84.918 10.8176C84.3406 10.7031 83.7422 10.7623 83.1985 10.9879C82.6548 11.2135 82.1903 11.5953 81.8636 12.0849C81.5369 12.5746 81.3628 13.1501 81.3633 13.7388C81.3658 14.5265 81.6802 15.2812 82.2379 15.8376C82.7957 16.3939 83.5511 16.7067 84.3389 16.7073V16.7121Z" fill="#F83718"/>
<path fill-rule="evenodd" clip-rule="evenodd" d="M16.2435 89.187C14.8189 89.1875 13.4262 88.7655 12.2414 87.9743C11.0566 87.1832 10.1331 86.0585 9.58756 84.7424C9.04205 83.4264 8.89911 81.9781 9.17675 80.5808C9.45439 79.1835 10.1402 77.8999 11.1474 76.8924C12.1546 75.8849 13.4379 75.1987 14.8351 74.9206C16.2324 74.6424 17.6807 74.7849 18.9969 75.33C20.3131 75.8751 21.4381 76.7982 22.2297 77.9827C23.0212 79.1672 23.4437 80.5598 23.4437 81.9845C23.4418 83.8937 22.6827 85.7242 21.3328 87.0745C19.983 88.4248 18.1527 89.1845 16.2435 89.187ZM16.2435 87.4649C17.3255 87.4649 18.3833 87.144 19.283 86.5428C20.1827 85.9417 20.8839 85.0873 21.2979 84.0876C21.712 83.0879 21.8204 81.9879 21.6093 80.9267C21.3982 79.8654 20.8772 78.8906 20.1121 78.1255C19.3469 77.3604 18.3721 76.8393 17.3109 76.6282C16.2496 76.4171 15.1496 76.5255 14.1499 76.9396C13.1503 77.3536 12.2958 78.0549 11.6947 78.9545C11.0935 79.8542 10.7726 80.912 10.7726 81.994C10.7764 83.4438 11.354 84.8332 12.3792 85.8584C13.4044 86.8835 14.7937 87.4611 16.2435 87.4649Z" fill="#F83718"/>
<path fill-rule="evenodd" clip-rule="evenodd" d="M36.6662 46.5379H45.3554C45.4628 46.0854 45.6427 45.6532 45.8882 45.2582L39.7394 39.1284C37.954 41.2091 36.8776 43.8043 36.6662 46.5379Z" fill="#F83718"/>
<path fill-rule="evenodd" clip-rule="evenodd" d="M41.1619 37.7012L47.3036 43.8453C47.698 43.6003 48.1292 43.4204 48.5809 43.3125V34.609C45.8416 34.8232 43.2424 35.9065 41.1619 37.7012Z" fill="#F83718"/>
<path fill-rule="evenodd" clip-rule="evenodd" d="M50.5933 34.609V43.2982C51.0445 43.4063 51.4756 43.5853 51.8707 43.8286L58.0124 37.687C55.9298 35.8978 53.3308 34.8196 50.5933 34.609Z" fill="#F83718"/>
<path fill-rule="evenodd" clip-rule="evenodd" d="M62.515 48.5505H53.8258C53.7184 49.0038 53.5384 49.4367 53.293 49.8326L59.4347 55.9743C61.225 53.8904 62.304 51.2898 62.515 48.5505Z" fill="#F83718"/>
<path fill-rule="evenodd" clip-rule="evenodd" d="M53.8236 46.5382H62.5152C62.3007 43.7983 61.2174 41.1984 59.4229 39.1168L53.2837 45.2585C53.5315 45.6531 53.7138 46.0853 53.8236 46.5382Z" fill="#F83718"/>
<path fill-rule="evenodd" clip-rule="evenodd" d="M58.0124 57.394L51.8707 51.2595C51.4765 51.505 51.0451 51.6849 50.5933 51.7923V60.4815C53.3319 60.2685 55.9312 59.1869 58.0124 57.394Z" fill="#F83718"/>
<path fill-rule="evenodd" clip-rule="evenodd" d="M48.5809 60.4744V51.7853C48.1288 51.6768 47.6968 51.4969 47.3012 51.2524L41.1596 57.3941C43.2426 59.1844 45.8424 60.2635 48.5809 60.4744Z" fill="#F83718"/>
<path fill-rule="evenodd" clip-rule="evenodd" d="M39.737 55.9719L45.881 49.8302C45.6356 49.4352 45.4556 49.003 45.3482 48.5505H36.6662C36.8743 51.288 37.95 53.8877 39.737 55.9719Z" fill="#F83718"/>
<path fill-rule="evenodd" clip-rule="evenodd" d="M38.3147 57.3967C36.1512 54.932 34.8604 51.8229 34.6421 48.5505H29.5637C29.7931 53.1677 31.6164 57.5625 34.723 60.986L38.3147 57.3967Z" fill="#F83718"/>
<path fill-rule="evenodd" clip-rule="evenodd" d="M29.5637 46.538H34.6421C34.8607 43.2665 36.1515 40.1582 38.3147 37.6942L34.723 34.1049C31.6169 37.5277 29.7936 41.9216 29.5637 46.538Z" fill="#F83718"/>
<path fill-rule="evenodd" clip-rule="evenodd" d="M36.1454 32.682L39.7371 36.2714C42.2019 34.1098 45.3098 32.8199 48.5809 32.6011V27.5227C43.9632 27.7501 39.5678 29.5737 36.1454 32.682Z" fill="#F83718"/>
<path fill-rule="evenodd" clip-rule="evenodd" d="M50.5933 32.6011C53.8643 32.8199 56.9723 34.1098 59.4371 36.2714L63.0265 32.682C59.605 29.5737 55.2102 27.7501 50.5933 27.5227V32.6011Z" fill="#F83718"/>
<path fill-rule="evenodd" clip-rule="evenodd" d="M60.8595 37.7013C63.0222 40.1666 64.3128 43.2754 64.5321 46.5475H69.6106C69.3805 41.93 67.5563 37.5351 64.4489 34.1119L60.8595 37.7013Z" fill="#F83718"/>
<path fill-rule="evenodd" clip-rule="evenodd" d="M69.6106 48.5505H64.5321C64.3135 51.8235 63.0228 54.9332 60.8595 57.3991L64.4489 60.9884C67.5568 57.5646 69.3811 53.1689 69.6106 48.5505Z" fill="#F83718"/>
<path fill-rule="evenodd" clip-rule="evenodd" d="M59.4371 58.8186C56.9731 60.9818 53.8648 62.2726 50.5933 62.4912V67.5696C55.2102 67.3402 59.6045 65.5159 63.0265 62.408L59.4371 58.8186Z" fill="#F83718"/>
<path fill-rule="evenodd" clip-rule="evenodd" d="M48.5809 67.5696V62.4912C45.3086 62.2726 42.1996 60.9818 39.7347 58.8186L36.1454 62.408C39.5686 65.5154 43.9634 67.3396 48.5809 67.5696Z" fill="#F83718"/>
</svg>
