<svg width="100" height="100" viewBox="0 0 100 100" fill="none" xmlns="http://www.w3.org/2000/svg">
<path fill-rule="evenodd" clip-rule="evenodd" d="M39.2917 71.6746C39.1014 71.6756 38.9159 71.6151 38.7627 71.5022L35.3792 69.0386L31.9932 71.4973C31.8398 71.6096 31.6547 71.6703 31.4645 71.6706C31.2744 71.6709 31.0891 71.6109 30.9352 71.4992C30.7814 71.3874 30.667 71.2298 30.6085 71.0489C30.55 70.868 30.5504 70.6732 30.6097 70.4925L31.9034 66.5144L28.5175 64.0556C28.3649 63.9435 28.2514 63.786 28.1934 63.6057C28.1354 63.4254 28.1356 63.2314 28.1942 63.0513C28.2528 62.8711 28.3668 62.7141 28.5198 62.6024C28.6728 62.4908 28.8572 62.4302 29.0466 62.4294H33.2286L34.5223 58.4512C34.583 58.2742 34.6976 58.1205 34.8499 58.0117C35.0022 57.9029 35.1847 57.8444 35.3718 57.8444C35.559 57.8444 35.7416 57.9029 35.8939 58.0117C36.0462 58.1205 36.1607 58.2742 36.2214 58.4512L37.5151 62.4294H41.6971C41.8865 62.4302 42.0709 62.4908 42.2239 62.6024C42.3769 62.7141 42.4909 62.8711 42.5495 63.0513C42.6081 63.2314 42.6083 63.4254 42.5503 63.6057C42.4923 63.786 42.3789 63.9435 42.2263 64.0556L38.8403 66.5144L40.134 70.4949C40.1921 70.6752 40.1917 70.8692 40.1328 71.0493C40.074 71.2293 39.9597 71.3862 39.8063 71.4973C39.6576 71.6089 39.4776 71.671 39.2917 71.6746Z" fill="#F83718"/>
<path fill-rule="evenodd" clip-rule="evenodd" d="M55.6994 67.0967C55.5091 67.0974 55.3236 67.037 55.1702 66.9244L50.3159 63.4074L45.4615 66.9244C45.308 67.0366 45.123 67.0973 44.9329 67.0976C44.7428 67.0979 44.5575 67.0379 44.4036 66.9262C44.2498 66.8144 44.1354 66.6568 44.0769 66.4759C44.0184 66.295 44.0188 66.1001 44.0781 65.9195L45.93 60.2278L41.0756 56.7083C40.9216 56.5971 40.8068 56.44 40.7477 56.2594C40.6886 56.0788 40.6883 55.8842 40.7469 55.7035C40.8054 55.5228 40.9198 55.3652 41.0735 55.2536C41.2272 55.1419 41.4123 55.0819 41.6023 55.0821H47.5901L49.4397 49.388C49.4985 49.2076 49.6128 49.0504 49.7662 48.9389C49.9196 48.8273 50.1043 48.767 50.2941 48.7666C50.4842 48.7665 50.6694 48.8265 50.8233 48.9382C50.9773 49.0498 51.092 49.2072 51.1509 49.388L53.0003 55.0821H58.9883C59.1783 55.0819 59.3634 55.1419 59.5171 55.2536C59.6708 55.3652 59.7851 55.5228 59.8436 55.7035C59.9022 55.8842 59.9019 56.0788 59.8428 56.2594C59.7837 56.44 59.669 56.5971 59.515 56.7083L54.6606 60.2278L56.51 65.9195C56.5693 66.0998 56.5698 66.2944 56.5113 66.475C56.4529 66.6556 56.3385 66.813 56.1848 66.9244C56.0443 67.0298 55.875 67.0899 55.6994 67.0967Z" fill="#F83718"/>
<path fill-rule="evenodd" clip-rule="evenodd" d="M61.6875 71.6747C61.5456 71.6748 61.4057 71.6413 61.2792 71.5769C61.1527 71.5125 61.0433 71.419 60.9599 71.3041C60.8766 71.1892 60.8216 71.0562 60.7996 70.916C60.7775 70.7758 60.789 70.6324 60.8331 70.4975L62.1268 66.5194L58.741 64.0606C58.5869 63.9494 58.4721 63.7922 58.413 63.6117C58.354 63.4311 58.3537 63.2365 58.4122 63.0557C58.4707 62.875 58.5851 62.7175 58.7388 62.6058C58.8925 62.4942 59.0777 62.4342 59.2677 62.4344H63.4521L64.7434 58.4562C64.8027 58.2757 64.9174 58.1184 65.0712 58.0069C65.225 57.8953 65.4101 57.8351 65.6001 57.8349C65.7899 57.8349 65.9749 57.895 66.1284 58.0066C66.2819 58.1183 66.396 58.2756 66.4545 58.4562L67.7457 62.4344H71.9303C72.1202 62.4342 72.3054 62.4942 72.4591 62.6058C72.6128 62.7175 72.7272 62.875 72.7857 63.0557C72.8442 63.2365 72.8439 63.4311 72.7849 63.6117C72.7258 63.7922 72.611 63.9494 72.4569 64.0606L69.0735 66.5194L70.3647 70.4999C70.4232 70.6804 70.423 70.8748 70.3642 71.0552C70.3054 71.2356 70.191 71.3927 70.0373 71.504C69.8837 71.6153 69.6987 71.6751 69.509 71.6748C69.3193 71.6745 69.1345 71.6141 68.9812 71.5023L65.605 69.0388L62.2069 71.5023C62.0563 71.6132 61.8745 71.6735 61.6875 71.6747Z" fill="#F83718"/>
<path fill-rule="evenodd" clip-rule="evenodd" d="M77.811 90.9998H22.2673C19.9797 90.9972 17.7864 90.0873 16.1688 88.4697C14.5512 86.852 13.6412 84.6588 13.6386 82.3711V33.1163C13.6412 30.8288 14.5512 28.6359 16.1689 27.0186C17.7866 25.4014 19.9799 24.492 22.2673 24.4901H77.811C80.0984 24.492 82.2917 25.4014 83.9094 27.0186C85.5271 28.6359 86.437 30.8288 86.4396 33.1163V82.3687C86.4364 84.6562 85.5263 86.849 83.9088 88.4665C82.2913 90.084 80.0985 90.9941 77.811 90.9973V90.9998ZM22.2673 26.2886C20.4567 26.2912 18.7208 27.0116 17.4405 28.2919C16.1601 29.5723 15.4398 31.308 15.4372 33.1187V82.3711C15.4391 84.182 16.1593 85.9182 17.4398 87.1986C18.7202 88.4791 20.4565 89.1993 22.2673 89.2012H77.811C79.6219 89.1993 81.358 88.4791 82.6385 87.1986C83.9189 85.9182 84.6392 84.182 84.6411 82.3711V33.1163C84.6392 31.3054 83.9189 29.5693 82.6385 28.2888C81.358 27.0083 79.6219 26.2881 77.811 26.2862L22.2673 26.2886Z" fill="#F83718"/>
<path fill-rule="evenodd" clip-rule="evenodd" d="M85.5394 38.8708H14.5394C14.4173 38.8772 14.2953 38.8587 14.1807 38.8163C14.0661 38.774 13.9613 38.7088 13.8727 38.6246C13.7841 38.5405 13.7135 38.4392 13.6653 38.327C13.6171 38.2147 13.5922 38.0937 13.5922 37.9716C13.5922 37.8494 13.6171 37.7285 13.6653 37.6162C13.7135 37.5039 13.7841 37.4027 13.8727 37.3185C13.9613 37.2344 14.0661 37.1692 14.1807 37.1268C14.2953 37.0845 14.4173 37.066 14.5394 37.0723H85.5394C85.7698 37.0843 85.9868 37.1843 86.1457 37.3516C86.3045 37.5189 86.3931 37.7408 86.3931 37.9716C86.3931 38.2023 86.3045 38.4242 86.1457 38.5916C85.9868 38.7589 85.7698 38.8589 85.5394 38.8708Z" fill="#F83718"/>
<path fill-rule="evenodd" clip-rule="evenodd" d="M40.8255 34.6018C40.2495 34.6018 39.6863 34.4309 39.2073 34.1109C38.7283 33.7908 38.355 33.3359 38.1345 32.8037C37.9141 32.2715 37.8565 31.6859 37.9688 31.1209C38.0812 30.5559 38.3586 30.0369 38.766 29.6296C39.1733 29.2222 39.6922 28.9448 40.2572 28.8325C40.8222 28.7201 41.4079 28.7777 41.9402 28.9982C42.4724 29.2186 42.9272 29.592 43.2473 30.0709C43.5673 30.5499 43.7381 31.1131 43.7381 31.6891C43.7381 32.4616 43.4313 33.2024 42.8851 33.7486C42.3388 34.2949 41.598 34.6018 40.8255 34.6018Z" fill="#F83718"/>
<path fill-rule="evenodd" clip-rule="evenodd" d="M32.7384 34.6018C32.1624 34.6018 31.5993 34.4309 31.1203 34.1109C30.6414 33.7908 30.268 33.3359 30.0475 32.8037C29.8271 32.2715 29.7695 31.6859 29.8819 31.1209C29.9942 30.5559 30.2715 30.0369 30.6789 29.6296C31.0862 29.2222 31.6053 28.9448 32.1703 28.8325C32.7353 28.7201 33.3208 28.7777 33.8531 28.9982C34.3853 29.2186 34.8402 29.592 35.1603 30.0709C35.4803 30.5499 35.651 31.1131 35.651 31.6891C35.651 32.4616 35.3442 33.2024 34.798 33.7486C34.2517 34.2949 33.5109 34.6018 32.7384 34.6018Z" fill="#F83718"/>
<path fill-rule="evenodd" clip-rule="evenodd" d="M24.6486 34.6018C24.0725 34.6018 23.5095 34.4309 23.0305 34.1109C22.5515 33.7908 22.1782 33.3359 21.9577 32.8037C21.7373 32.2715 21.6796 31.6859 21.792 31.1209C21.9044 30.5559 22.1818 30.0369 22.5892 29.6296C22.9965 29.2222 23.5154 28.9448 24.0804 28.8325C24.6454 28.7201 25.231 28.7777 25.7632 28.9982C26.2954 29.2186 26.7504 29.592 27.0704 30.0709C27.3905 30.5499 27.5612 31.1131 27.5612 31.6891C27.5612 32.4616 27.2544 33.2024 26.7081 33.7486C26.1619 34.2949 25.4211 34.6018 24.6486 34.6018Z" fill="#F83718"/>
<path fill-rule="evenodd" clip-rule="evenodd" d="M78.35 83.8082H21.7287C21.6107 83.8085 21.4938 83.7855 21.3847 83.7405C21.2756 83.6954 21.1764 83.6293 21.093 83.5459C21.0095 83.4624 20.9434 83.3632 20.8984 83.2541C20.8534 83.145 20.8303 83.0281 20.8306 82.9101V45.1625C20.8306 44.9243 20.9253 44.6959 21.0937 44.5275C21.2621 44.3591 21.4905 44.2645 21.7287 44.2645H78.35C78.5882 44.2645 78.8167 44.3591 78.9851 44.5275C79.1535 44.6959 79.2481 44.9243 79.2481 45.1625V82.9101C79.2481 83.1483 79.1535 83.3767 78.9851 83.5452C78.8167 83.7136 78.5882 83.8082 78.35 83.8082ZM22.6292 82.012H77.452V46.0606H22.6292V82.012Z" fill="#F83718"/>
<path fill-rule="evenodd" clip-rule="evenodd" d="M78.3498 77.5168H21.7285C21.498 77.5049 21.281 77.4049 21.1221 77.2376C20.9633 77.0702 20.8747 76.8483 20.8747 76.6176C20.8747 76.3869 20.9633 76.1649 21.1221 75.9976C21.281 75.8303 21.498 75.7303 21.7285 75.7183H78.3498C78.5802 75.7303 78.7972 75.8303 78.9561 75.9976C79.115 76.1649 79.2036 76.3869 79.2036 76.6176C79.2036 76.8483 79.115 77.0702 78.9561 77.2376C78.7972 77.4049 78.5802 77.5049 78.3498 77.5168Z" fill="#F83718"/>
<path fill-rule="evenodd" clip-rule="evenodd" d="M81.0463 19.0993C80.1571 19.0998 79.2878 18.8366 78.5482 18.3429C77.8087 17.8493 77.2321 17.1474 76.8915 16.326C76.5509 15.5047 76.4616 14.6008 76.6348 13.7287C76.808 12.8565 77.2358 12.0554 77.8644 11.4265C78.493 10.7976 79.2939 10.3692 80.166 10.1956C81.038 10.0219 81.9419 10.1108 82.7634 10.451C83.585 10.7911 84.2872 11.3672 84.7813 12.1065C85.2753 12.8458 85.5389 13.715 85.5389 14.6041C85.5377 15.7955 85.064 16.9377 84.2218 17.7804C83.3796 18.623 82.2377 19.0974 81.0463 19.0993ZM81.0463 11.9099C80.5128 11.9095 79.9912 12.0672 79.5474 12.3633C79.1036 12.6593 78.7577 13.0802 78.5532 13.5729C78.3487 14.0656 78.295 14.6079 78.3988 15.1312C78.5026 15.6544 78.7591 16.1352 79.1362 16.5125C79.5132 16.8899 79.9937 17.1469 80.5169 17.2512C81.04 17.3554 81.5823 17.3022 82.0752 17.0982C82.5681 16.8941 82.9894 16.5485 83.2859 16.1049C83.5823 15.6614 83.7405 15.14 83.7405 14.6066C83.7398 13.892 83.4559 13.2068 82.9508 12.7013C82.4458 12.1958 81.7608 11.9112 81.0463 11.9099Z" fill="#F83718"/>
<path fill-rule="evenodd" clip-rule="evenodd" d="M28.9179 20.0094C27.8511 20.0094 26.8084 19.693 25.9214 19.1003C25.0344 18.5076 24.3431 17.6651 23.935 16.6795C23.5268 15.6939 23.4202 14.6093 23.6285 13.5631C23.8368 12.5169 24.3507 11.5559 25.1052 10.8017C25.8597 10.0475 26.8208 9.53413 27.8672 9.32631C28.9135 9.11849 29.9981 9.22558 30.9835 9.63415C31.969 10.0427 32.811 10.7344 33.4034 11.6216C33.9957 12.5089 34.3115 13.5518 34.3111 14.6186C34.3091 16.0481 33.7403 17.4185 32.7292 18.4291C31.7182 19.4398 30.3475 20.0081 28.9179 20.0094ZM28.9179 11.0288C28.2069 11.0288 27.5118 11.2396 26.9206 11.6347C26.3294 12.0298 25.8687 12.5914 25.5967 13.2484C25.3247 13.9054 25.2536 14.6282 25.3925 15.3256C25.5314 16.023 25.874 16.6635 26.377 17.1661C26.8799 17.6688 27.5206 18.0109 28.2181 18.1493C28.9155 18.2878 29.6384 18.2162 30.2952 17.9438C30.952 17.6713 31.5132 17.2102 31.9079 16.6188C32.3026 16.0273 32.5131 15.3321 32.5126 14.621C32.5142 14.1478 32.4224 13.6789 32.2425 13.2413C32.0626 12.8036 31.798 12.4058 31.4641 12.0705C31.1302 11.7352 30.7334 11.4691 30.2965 11.2874C29.8596 11.1058 29.3911 11.0121 28.9179 11.0118V11.0288Z" fill="#F83718"/>
</svg>
