<svg width="100" height="100" viewBox="0 0 100 100" fill="none" xmlns="http://www.w3.org/2000/svg">
<path fill-rule="evenodd" clip-rule="evenodd" d="M78.0112 54.5604L72.3485 54.541C72.1175 54.541 71.8958 54.4492 71.7324 54.2858C71.569 54.1223 71.4771 53.9007 71.4771 53.6696C71.4771 53.4385 71.569 53.2169 71.7324 53.0535C71.8958 52.8901 72.1175 52.7983 72.3485 52.7983L78.0087 52.8177C80.9654 52.7743 83.7862 51.5693 85.8617 49.4631C87.9372 47.3569 89.1007 44.5186 89.1007 41.5616C89.1007 38.6046 87.9372 35.7664 85.8617 33.6602C83.7862 31.554 80.9654 30.349 78.0087 30.3056C77.8097 30.3056 77.5985 30.3055 77.363 30.325C77.1922 30.3347 77.0224 30.2939 76.8747 30.2075C76.7271 30.1212 76.6082 29.9932 76.533 29.8395C75.6795 28.1133 74.4715 26.5867 72.9877 25.3593C71.5039 24.1319 69.7779 23.2314 67.9224 22.7166C66.0668 22.2019 64.1235 22.0845 62.2194 22.3721C60.3154 22.6597 58.4935 23.3458 56.8728 24.3856C56.7642 24.4557 56.6416 24.5007 56.5135 24.5174C56.3855 24.5342 56.2553 24.5223 56.1324 24.4826C56.0095 24.4428 55.8971 24.3763 55.803 24.2878C55.709 24.1992 55.6358 24.0909 55.5888 23.9706C53.9375 19.7804 50.876 16.2977 46.932 14.123C42.9881 11.9483 38.4089 11.2179 33.9841 12.0577C29.5593 12.8975 25.5662 15.2549 22.6933 18.7234C19.8204 22.1919 18.2478 26.5542 18.2466 31.058C18.2466 32.1265 18.3343 33.1931 18.5087 34.2473C18.5446 34.4666 18.4955 34.6914 18.3715 34.8758C18.2475 35.0602 18.0579 35.1904 17.8413 35.24C15.7232 35.7202 13.8564 36.9643 12.598 38.7344C11.3397 40.5045 10.778 42.6764 11.0204 44.8347C11.2629 46.9929 12.2924 48.9861 13.9121 50.4329C15.5319 51.8797 17.6282 52.6786 19.8 52.6769L38.0985 52.7255C38.3296 52.7255 38.5513 52.8173 38.7147 52.9807C38.8781 53.1441 38.9699 53.3657 38.9699 53.5968C38.9699 53.8279 38.8781 54.0495 38.7147 54.213C38.5513 54.3764 38.3296 54.4682 38.0985 54.4682L19.8 54.4221C17.269 54.4229 14.8216 53.5158 12.9026 51.8656C10.9836 50.2153 9.72026 47.9314 9.34214 45.4288C8.96401 42.9262 9.49621 40.371 10.842 38.2274C12.1878 36.0839 14.2579 34.4942 16.6762 33.7473C16.2941 30.7758 16.5496 27.7569 17.4257 24.8919C18.3019 22.0269 19.7785 19.3815 21.7573 17.1319C23.736 14.8824 26.1715 13.0804 28.9014 11.846C31.6312 10.6115 34.5928 9.97304 37.5888 9.97302C41.6506 9.97234 45.6262 11.1447 49.0376 13.3493C52.4491 15.5538 55.1513 18.6968 56.8194 22.4002C58.6032 21.418 60.5637 20.7984 62.588 20.577C64.6123 20.3557 66.6603 20.537 68.6143 21.1105C70.5682 21.6839 72.3895 22.6383 73.973 23.9185C75.5566 25.1988 76.8712 26.7797 77.8412 28.5701H78.0136C81.4614 28.5701 84.768 29.9398 87.2059 32.3777C89.6439 34.8157 91.0136 38.1223 91.0136 41.5701C91.0136 45.0179 89.6439 48.3245 87.2059 50.7625C84.768 53.2005 81.4614 54.5701 78.0136 54.5701L78.0112 54.5604Z" fill="#F83718"/>
<path fill-rule="evenodd" clip-rule="evenodd" d="M25.2685 31.0191C25.0374 31.0191 24.8158 30.9273 24.6524 30.7639C24.489 30.6005 24.3972 30.3788 24.3972 30.1477C24.401 26.4492 25.8718 22.9032 28.4868 20.2877C31.1018 17.6722 34.6476 16.2008 38.3462 16.1963C38.4646 16.19 38.5831 16.208 38.6944 16.249C38.8057 16.29 38.9075 16.3533 38.9936 16.4349C39.0796 16.5166 39.1481 16.6149 39.195 16.7239C39.2418 16.8328 39.266 16.9502 39.266 17.0688C39.266 17.1875 39.2418 17.3049 39.195 17.4138C39.1481 17.5228 39.0796 17.6211 38.9936 17.7028C38.9075 17.7844 38.8057 17.8477 38.6944 17.8887C38.5831 17.9297 38.4646 17.9477 38.3462 17.9414C35.11 17.9453 32.0075 19.2325 29.7192 21.5208C27.4309 23.8091 26.1437 26.9116 26.1399 30.1477C26.1402 30.2623 26.1179 30.3757 26.0742 30.4816C26.0305 30.5874 25.9663 30.6836 25.8853 30.7646C25.8044 30.8456 25.7082 30.9097 25.6023 30.9534C25.4965 30.9971 25.383 31.0194 25.2685 31.0191Z" fill="#F83718"/>
<path fill-rule="evenodd" clip-rule="evenodd" d="M81.9407 19.6842C80.9063 19.6837 79.8953 19.3765 79.0354 18.8015C78.1756 18.2265 77.5054 17.4094 77.1099 16.4536C76.7144 15.4978 76.6112 14.4462 76.8133 13.4317C77.0154 12.4172 77.5138 11.4854 78.2454 10.7542C78.977 10.0229 79.909 9.52498 80.9236 9.32335C81.9382 9.12173 82.9896 9.22544 83.9453 9.6214C84.9009 10.0174 85.7177 10.6878 86.2923 11.5479C86.867 12.408 87.1737 13.4192 87.1737 14.4536C87.1718 15.8407 86.6197 17.1703 85.6387 18.1509C84.6577 19.1315 83.3278 19.6829 81.9407 19.6842ZM81.9407 10.9657C81.2509 10.9657 80.5764 11.1703 80.0029 11.5536C79.4293 11.9368 78.9823 12.4815 78.7183 13.1189C78.4543 13.7562 78.3852 14.4575 78.5198 15.134C78.6543 15.8106 78.9866 16.4321 79.4744 16.9199C79.9622 17.4077 80.5836 17.7399 81.2602 17.8745C81.9368 18.009 82.6381 17.94 83.2754 17.676C83.9127 17.412 84.4575 16.9649 84.8407 16.3914C85.224 15.8178 85.4286 15.1434 85.4286 14.4536C85.4279 13.5288 85.0602 12.642 84.4063 11.988C83.7523 11.3341 82.8655 10.9664 81.9407 10.9657Z" fill="#F83718"/>
<path fill-rule="evenodd" clip-rule="evenodd" d="M20.0382 82.4632C18.6584 82.4637 17.3095 82.055 16.162 81.2887C15.0145 80.5225 14.12 79.4333 13.5917 78.1587C13.0633 76.884 12.9249 75.4814 13.1938 74.128C13.4627 72.7747 14.1268 71.5316 15.1023 70.5557C16.0778 69.5799 17.3207 68.9153 18.674 68.6459C20.0272 68.3766 21.4299 68.5146 22.7047 69.0425C23.9794 69.5704 25.0691 70.4645 25.8357 71.6117C26.6023 72.7589 27.0115 74.1077 27.0115 75.4875C27.0089 77.3363 26.2735 79.1088 24.9663 80.4164C23.6592 81.7239 21.8871 82.46 20.0382 82.4632ZM20.0382 70.2544C19.0031 70.254 17.9911 70.5605 17.1302 71.1352C16.2693 71.7099 15.5982 72.527 15.2018 73.4832C14.8053 74.4393 14.7014 75.4916 14.903 76.5069C15.1046 77.5221 15.6028 78.4548 16.3346 79.1869C17.0663 79.919 17.9988 80.4176 19.0139 80.6197C20.0291 80.8218 21.0814 80.7184 22.0378 80.3224C22.9941 79.9264 23.8116 79.2556 24.3867 78.395C24.9618 77.5344 25.2687 76.5226 25.2687 75.4875C25.2674 74.1004 24.7161 72.7705 23.7355 71.7895C22.7549 70.8084 21.4253 70.2564 20.0382 70.2544Z" fill="#F83718"/>
<rect x="38.7137" y="35.0725" width="33.0097" height="54.6117" rx="4.97573" fill="white" stroke="#F83718" stroke-width="1.69903"/>
<path d="M38.5924 78.6405H71.6021" stroke="#F83718" stroke-width="1.69903"/>
<circle cx="55.34" cy="83.9802" r="2.18447" fill="#F83718" stroke="#F83718" stroke-width="1.45631"/>
<path fill-rule="evenodd" clip-rule="evenodd" d="M48.6462 62.9568C48.5324 62.9574 48.4216 62.9213 48.3301 62.8538L46.3089 61.3821L44.2862 62.8509C44.1945 62.918 44.0839 62.9542 43.9703 62.9544C43.8568 62.9546 43.746 62.9188 43.6542 62.852C43.5623 62.7853 43.4939 62.6911 43.459 62.583C43.424 62.475 43.4243 62.3586 43.4597 62.2507L44.2325 59.8742L42.2099 58.4054C42.1187 58.3384 42.0509 58.2444 42.0162 58.1366C41.9816 58.0289 41.9817 57.913 42.0167 57.8054C42.0517 57.6978 42.1198 57.604 42.2112 57.5373C42.3026 57.4706 42.4128 57.4344 42.5259 57.4339H45.0242L45.797 55.0574C45.8333 54.9517 45.9017 54.8599 45.9927 54.7949C46.0837 54.7299 46.1927 54.6949 46.3045 54.6949C46.4163 54.6949 46.5254 54.7299 46.6164 54.7949C46.7073 54.8599 46.7757 54.9517 46.812 55.0574L47.5848 57.4339H50.0831C50.1962 57.4344 50.3064 57.4706 50.3978 57.5373C50.4892 57.604 50.5572 57.6978 50.5923 57.8054C50.6273 57.913 50.6274 58.0289 50.5928 58.1366C50.5581 58.2444 50.4904 58.3384 50.3992 58.4054L48.3765 59.8742L49.1493 62.2521C49.184 62.3598 49.1838 62.4757 49.1486 62.5833C49.1135 62.6908 49.0452 62.7845 48.9536 62.8509C48.8647 62.9176 48.7572 62.9546 48.6462 62.9568Z" fill="#F83718"/>
<path fill-rule="evenodd" clip-rule="evenodd" d="M58.4478 60.2223C58.3342 60.2227 58.2233 60.1866 58.1317 60.1193L55.2318 58.0183L52.3319 60.1193C52.2402 60.1864 52.1297 60.2226 52.0161 60.2228C51.9026 60.223 51.7919 60.1871 51.7 60.1204C51.6081 60.0536 51.5397 59.9594 51.5048 59.8514C51.4698 59.7433 51.4701 59.6269 51.5055 59.519L52.6118 56.1189L49.7119 54.0165C49.6199 53.95 49.5513 53.8561 49.516 53.7483C49.4807 53.6404 49.4805 53.5242 49.5155 53.4162C49.5504 53.3082 49.6188 53.2141 49.7106 53.1474C49.8024 53.0807 49.913 53.0449 50.0265 53.045H53.6035L54.7084 49.6434C54.7435 49.5357 54.8118 49.4418 54.9034 49.3751C54.9951 49.3085 55.1055 49.2724 55.2188 49.2722C55.3324 49.2721 55.443 49.308 55.535 49.3747C55.6269 49.4414 55.6955 49.5354 55.7307 49.6434L56.8355 53.045H60.4126C60.526 53.0449 60.6366 53.0807 60.7285 53.1474C60.8203 53.2141 60.8885 53.3082 60.9235 53.4162C60.9585 53.5242 60.9583 53.6404 60.923 53.7483C60.8877 53.8561 60.8192 53.95 60.7272 54.0165L57.8273 56.1189L58.9321 59.519C58.9675 59.6267 58.9678 59.743 58.9329 59.8508C58.8979 59.9587 58.8296 60.0528 58.7378 60.1193C58.6539 60.1823 58.5527 60.2182 58.4478 60.2223Z" fill="#F83718"/>
<path fill-rule="evenodd" clip-rule="evenodd" d="M62.025 62.9572C61.9402 62.9573 61.8566 62.9372 61.7811 62.8988C61.7055 62.8603 61.6402 62.8044 61.5903 62.7358C61.5405 62.6672 61.5077 62.5877 61.4946 62.504C61.4814 62.4202 61.4882 62.3346 61.5146 62.254L62.2874 59.8775L60.2648 58.4087C60.1728 58.3423 60.1042 58.2484 60.0689 58.1405C60.0336 58.0326 60.0334 57.9164 60.0684 57.8084C60.1034 57.7004 60.1717 57.6063 60.2635 57.5396C60.3553 57.4729 60.4659 57.4371 60.5794 57.4372H63.0791L63.8505 55.0607C63.8859 54.9529 63.9544 54.859 64.0463 54.7923C64.1382 54.7257 64.2488 54.6897 64.3623 54.6896C64.4757 54.6896 64.5862 54.7255 64.6779 54.7922C64.7696 54.8588 64.8378 54.9529 64.8727 55.0607L65.6441 57.4372H68.1438C68.2573 57.4371 68.3679 57.4729 68.4597 57.5396C68.5515 57.6063 68.6199 57.7004 68.6548 57.8084C68.6898 57.9164 68.6896 58.0326 68.6543 58.1405C68.619 58.2484 68.5505 58.3423 68.4584 58.4087L66.4372 59.8775L67.2086 62.2554C67.2435 62.3632 67.2434 62.4793 67.2083 62.5871C67.1731 62.6949 67.1048 62.7887 67.013 62.8552C66.9212 62.9217 66.8107 62.9574 66.6974 62.9573C66.5841 62.9571 66.4737 62.921 66.3821 62.8542L64.3652 61.3825L62.3353 62.8542C62.2453 62.9204 62.1367 62.9565 62.025 62.9572Z" fill="#F83718"/>
</svg>
