<svg width="15" height="15" viewBox="0 0 15 15" fill="none" xmlns="http://www.w3.org/2000/svg">
<g clip-path="url(#clip0_250_2)">
<path d="M0.5 5.5L0.21 5.093L0 5.243V5.5H0.5ZM7.5 0.499997L7.79 0.0929969C7.70532 0.0327049 7.60395 0.000305176 7.5 0.000305176C7.39605 0.000305176 7.29468 0.0327049 7.21 0.0929969L7.5 0.499997ZM14.5 5.5H15V5.243L14.79 5.093L14.5 5.5ZM2.5 8.5V8H2V8.5H2.5ZM6.5 8.5H7V8H6.5V8.5ZM1 15V5.5H0L0 15H1ZM0.79 5.907L7.79 0.906997L7.21 0.0929969L0.21 5.093L0.79 5.907ZM7.21 0.906997L14.21 5.907L14.79 5.093L7.79 0.0929969L7.21 0.906997ZM14 5.5V15H15V5.5H14ZM3 15V8.5H2V15H3ZM2.5 9H6.5V8H2.5V9ZM6 8.5V15H7V8.5H6ZM5 12H6.5V11H5V12ZM11 8V12H12V8H11ZM13 2V4.5H14V2H13Z" fill="white"/>
</g>
<defs>
<clipPath id="clip0_250_2">
<rect width="15" height="15" fill="white"/>
</clipPath>
</defs>
</svg>
